G04 #@! TF.GenerationSoftware,KiCad,Pcbnew,(5.1.5-0-10_14)*
G04 #@! TF.CreationDate,2020-05-18T16:23:34+03:00*
G04 #@! TF.ProjectId,final2,66696e61-6c32-42e6-9b69-6361645f7063,rev?*
G04 #@! TF.SameCoordinates,Original*
G04 #@! TF.FileFunction,Copper,L1,Top*
G04 #@! TF.FilePolarity,Positive*
%FSLAX46Y46*%
G04 Gerber Fmt 4.6, Leading zero omitted, Abs format (unit mm)*
G04 Created by KiCad (PCBNEW (5.1.5-0-10_14)) date 2020-05-18 16:23:34*
%MOMM*%
%LPD*%
G04 APERTURE LIST*
%ADD10R,1.600000X1.600000*%
%ADD11O,1.600000X1.600000*%
%ADD12C,0.100000*%
%ADD13R,3.800000X3.800000*%
%ADD14C,4.000000*%
%ADD15R,4.000000X2.000000*%
%ADD16O,3.300000X2.000000*%
%ADD17O,2.000000X3.500000*%
%ADD18O,1.050000X1.500000*%
%ADD19R,1.050000X1.500000*%
%ADD20C,0.250000*%
%ADD21C,0.254000*%
G04 APERTURE END LIST*
D10*
X152400000Y-92710000D03*
D11*
X144780000Y-85090000D03*
X152400000Y-90170000D03*
X144780000Y-87630000D03*
X152400000Y-87630000D03*
X144780000Y-90170000D03*
X152400000Y-85090000D03*
X144780000Y-92710000D03*
G04 #@! TA.AperFunction,SMDPad,CuDef*
D12*
G36*
X132554505Y-84761204D02*
G01*
X132578773Y-84764804D01*
X132602572Y-84770765D01*
X132625671Y-84779030D01*
X132647850Y-84789520D01*
X132668893Y-84802132D01*
X132688599Y-84816747D01*
X132706777Y-84833223D01*
X132723253Y-84851401D01*
X132737868Y-84871107D01*
X132750480Y-84892150D01*
X132760970Y-84914329D01*
X132769235Y-84937428D01*
X132775196Y-84961227D01*
X132778796Y-84985495D01*
X132780000Y-85009999D01*
X132780000Y-85660001D01*
X132778796Y-85684505D01*
X132775196Y-85708773D01*
X132769235Y-85732572D01*
X132760970Y-85755671D01*
X132750480Y-85777850D01*
X132737868Y-85798893D01*
X132723253Y-85818599D01*
X132706777Y-85836777D01*
X132688599Y-85853253D01*
X132668893Y-85867868D01*
X132647850Y-85880480D01*
X132625671Y-85890970D01*
X132602572Y-85899235D01*
X132578773Y-85905196D01*
X132554505Y-85908796D01*
X132530001Y-85910000D01*
X131629999Y-85910000D01*
X131605495Y-85908796D01*
X131581227Y-85905196D01*
X131557428Y-85899235D01*
X131534329Y-85890970D01*
X131512150Y-85880480D01*
X131491107Y-85867868D01*
X131471401Y-85853253D01*
X131453223Y-85836777D01*
X131436747Y-85818599D01*
X131422132Y-85798893D01*
X131409520Y-85777850D01*
X131399030Y-85755671D01*
X131390765Y-85732572D01*
X131384804Y-85708773D01*
X131381204Y-85684505D01*
X131380000Y-85660001D01*
X131380000Y-85009999D01*
X131381204Y-84985495D01*
X131384804Y-84961227D01*
X131390765Y-84937428D01*
X131399030Y-84914329D01*
X131409520Y-84892150D01*
X131422132Y-84871107D01*
X131436747Y-84851401D01*
X131453223Y-84833223D01*
X131471401Y-84816747D01*
X131491107Y-84802132D01*
X131512150Y-84789520D01*
X131534329Y-84779030D01*
X131557428Y-84770765D01*
X131581227Y-84764804D01*
X131605495Y-84761204D01*
X131629999Y-84760000D01*
X132530001Y-84760000D01*
X132554505Y-84761204D01*
G37*
G04 #@! TD.AperFunction*
G04 #@! TA.AperFunction,SMDPad,CuDef*
G36*
X132554505Y-86811204D02*
G01*
X132578773Y-86814804D01*
X132602572Y-86820765D01*
X132625671Y-86829030D01*
X132647850Y-86839520D01*
X132668893Y-86852132D01*
X132688599Y-86866747D01*
X132706777Y-86883223D01*
X132723253Y-86901401D01*
X132737868Y-86921107D01*
X132750480Y-86942150D01*
X132760970Y-86964329D01*
X132769235Y-86987428D01*
X132775196Y-87011227D01*
X132778796Y-87035495D01*
X132780000Y-87059999D01*
X132780000Y-87710001D01*
X132778796Y-87734505D01*
X132775196Y-87758773D01*
X132769235Y-87782572D01*
X132760970Y-87805671D01*
X132750480Y-87827850D01*
X132737868Y-87848893D01*
X132723253Y-87868599D01*
X132706777Y-87886777D01*
X132688599Y-87903253D01*
X132668893Y-87917868D01*
X132647850Y-87930480D01*
X132625671Y-87940970D01*
X132602572Y-87949235D01*
X132578773Y-87955196D01*
X132554505Y-87958796D01*
X132530001Y-87960000D01*
X131629999Y-87960000D01*
X131605495Y-87958796D01*
X131581227Y-87955196D01*
X131557428Y-87949235D01*
X131534329Y-87940970D01*
X131512150Y-87930480D01*
X131491107Y-87917868D01*
X131471401Y-87903253D01*
X131453223Y-87886777D01*
X131436747Y-87868599D01*
X131422132Y-87848893D01*
X131409520Y-87827850D01*
X131399030Y-87805671D01*
X131390765Y-87782572D01*
X131384804Y-87758773D01*
X131381204Y-87734505D01*
X131380000Y-87710001D01*
X131380000Y-87059999D01*
X131381204Y-87035495D01*
X131384804Y-87011227D01*
X131390765Y-86987428D01*
X131399030Y-86964329D01*
X131409520Y-86942150D01*
X131422132Y-86921107D01*
X131436747Y-86901401D01*
X131453223Y-86883223D01*
X131471401Y-86866747D01*
X131491107Y-86852132D01*
X131512150Y-86839520D01*
X131534329Y-86829030D01*
X131557428Y-86820765D01*
X131581227Y-86814804D01*
X131605495Y-86811204D01*
X131629999Y-86810000D01*
X132530001Y-86810000D01*
X132554505Y-86811204D01*
G37*
G04 #@! TD.AperFunction*
G04 #@! TA.AperFunction,SMDPad,CuDef*
G36*
X138904505Y-86566204D02*
G01*
X138928773Y-86569804D01*
X138952572Y-86575765D01*
X138975671Y-86584030D01*
X138997850Y-86594520D01*
X139018893Y-86607132D01*
X139038599Y-86621747D01*
X139056777Y-86638223D01*
X139073253Y-86656401D01*
X139087868Y-86676107D01*
X139100480Y-86697150D01*
X139110970Y-86719329D01*
X139119235Y-86742428D01*
X139125196Y-86766227D01*
X139128796Y-86790495D01*
X139130000Y-86814999D01*
X139130000Y-87465001D01*
X139128796Y-87489505D01*
X139125196Y-87513773D01*
X139119235Y-87537572D01*
X139110970Y-87560671D01*
X139100480Y-87582850D01*
X139087868Y-87603893D01*
X139073253Y-87623599D01*
X139056777Y-87641777D01*
X139038599Y-87658253D01*
X139018893Y-87672868D01*
X138997850Y-87685480D01*
X138975671Y-87695970D01*
X138952572Y-87704235D01*
X138928773Y-87710196D01*
X138904505Y-87713796D01*
X138880001Y-87715000D01*
X137979999Y-87715000D01*
X137955495Y-87713796D01*
X137931227Y-87710196D01*
X137907428Y-87704235D01*
X137884329Y-87695970D01*
X137862150Y-87685480D01*
X137841107Y-87672868D01*
X137821401Y-87658253D01*
X137803223Y-87641777D01*
X137786747Y-87623599D01*
X137772132Y-87603893D01*
X137759520Y-87582850D01*
X137749030Y-87560671D01*
X137740765Y-87537572D01*
X137734804Y-87513773D01*
X137731204Y-87489505D01*
X137730000Y-87465001D01*
X137730000Y-86814999D01*
X137731204Y-86790495D01*
X137734804Y-86766227D01*
X137740765Y-86742428D01*
X137749030Y-86719329D01*
X137759520Y-86697150D01*
X137772132Y-86676107D01*
X137786747Y-86656401D01*
X137803223Y-86638223D01*
X137821401Y-86621747D01*
X137841107Y-86607132D01*
X137862150Y-86594520D01*
X137884329Y-86584030D01*
X137907428Y-86575765D01*
X137931227Y-86569804D01*
X137955495Y-86566204D01*
X137979999Y-86565000D01*
X138880001Y-86565000D01*
X138904505Y-86566204D01*
G37*
G04 #@! TD.AperFunction*
G04 #@! TA.AperFunction,SMDPad,CuDef*
G36*
X138904505Y-84516204D02*
G01*
X138928773Y-84519804D01*
X138952572Y-84525765D01*
X138975671Y-84534030D01*
X138997850Y-84544520D01*
X139018893Y-84557132D01*
X139038599Y-84571747D01*
X139056777Y-84588223D01*
X139073253Y-84606401D01*
X139087868Y-84626107D01*
X139100480Y-84647150D01*
X139110970Y-84669329D01*
X139119235Y-84692428D01*
X139125196Y-84716227D01*
X139128796Y-84740495D01*
X139130000Y-84764999D01*
X139130000Y-85415001D01*
X139128796Y-85439505D01*
X139125196Y-85463773D01*
X139119235Y-85487572D01*
X139110970Y-85510671D01*
X139100480Y-85532850D01*
X139087868Y-85553893D01*
X139073253Y-85573599D01*
X139056777Y-85591777D01*
X139038599Y-85608253D01*
X139018893Y-85622868D01*
X138997850Y-85635480D01*
X138975671Y-85645970D01*
X138952572Y-85654235D01*
X138928773Y-85660196D01*
X138904505Y-85663796D01*
X138880001Y-85665000D01*
X137979999Y-85665000D01*
X137955495Y-85663796D01*
X137931227Y-85660196D01*
X137907428Y-85654235D01*
X137884329Y-85645970D01*
X137862150Y-85635480D01*
X137841107Y-85622868D01*
X137821401Y-85608253D01*
X137803223Y-85591777D01*
X137786747Y-85573599D01*
X137772132Y-85553893D01*
X137759520Y-85532850D01*
X137749030Y-85510671D01*
X137740765Y-85487572D01*
X137734804Y-85463773D01*
X137731204Y-85439505D01*
X137730000Y-85415001D01*
X137730000Y-84764999D01*
X137731204Y-84740495D01*
X137734804Y-84716227D01*
X137740765Y-84692428D01*
X137749030Y-84669329D01*
X137759520Y-84647150D01*
X137772132Y-84626107D01*
X137786747Y-84606401D01*
X137803223Y-84588223D01*
X137821401Y-84571747D01*
X137841107Y-84557132D01*
X137862150Y-84544520D01*
X137884329Y-84534030D01*
X137907428Y-84525765D01*
X137931227Y-84519804D01*
X137955495Y-84516204D01*
X137979999Y-84515000D01*
X138880001Y-84515000D01*
X138904505Y-84516204D01*
G37*
G04 #@! TD.AperFunction*
D13*
X137160000Y-100330000D03*
D14*
X142160000Y-100330000D03*
X148510000Y-74930000D03*
D13*
X143510000Y-74930000D03*
D15*
X120650000Y-77470000D03*
D16*
X120650000Y-83470000D03*
D17*
X116150000Y-84470000D03*
X125150000Y-84470000D03*
D18*
X158750000Y-80010000D03*
X160020000Y-80010000D03*
D19*
X157480000Y-80010000D03*
G04 #@! TA.AperFunction,SMDPad,CuDef*
D12*
G36*
X158854505Y-99631204D02*
G01*
X158878773Y-99634804D01*
X158902572Y-99640765D01*
X158925671Y-99649030D01*
X158947850Y-99659520D01*
X158968893Y-99672132D01*
X158988599Y-99686747D01*
X159006777Y-99703223D01*
X159023253Y-99721401D01*
X159037868Y-99741107D01*
X159050480Y-99762150D01*
X159060970Y-99784329D01*
X159069235Y-99807428D01*
X159075196Y-99831227D01*
X159078796Y-99855495D01*
X159080000Y-99879999D01*
X159080000Y-100780001D01*
X159078796Y-100804505D01*
X159075196Y-100828773D01*
X159069235Y-100852572D01*
X159060970Y-100875671D01*
X159050480Y-100897850D01*
X159037868Y-100918893D01*
X159023253Y-100938599D01*
X159006777Y-100956777D01*
X158988599Y-100973253D01*
X158968893Y-100987868D01*
X158947850Y-101000480D01*
X158925671Y-101010970D01*
X158902572Y-101019235D01*
X158878773Y-101025196D01*
X158854505Y-101028796D01*
X158830001Y-101030000D01*
X158179999Y-101030000D01*
X158155495Y-101028796D01*
X158131227Y-101025196D01*
X158107428Y-101019235D01*
X158084329Y-101010970D01*
X158062150Y-101000480D01*
X158041107Y-100987868D01*
X158021401Y-100973253D01*
X158003223Y-100956777D01*
X157986747Y-100938599D01*
X157972132Y-100918893D01*
X157959520Y-100897850D01*
X157949030Y-100875671D01*
X157940765Y-100852572D01*
X157934804Y-100828773D01*
X157931204Y-100804505D01*
X157930000Y-100780001D01*
X157930000Y-99879999D01*
X157931204Y-99855495D01*
X157934804Y-99831227D01*
X157940765Y-99807428D01*
X157949030Y-99784329D01*
X157959520Y-99762150D01*
X157972132Y-99741107D01*
X157986747Y-99721401D01*
X158003223Y-99703223D01*
X158021401Y-99686747D01*
X158041107Y-99672132D01*
X158062150Y-99659520D01*
X158084329Y-99649030D01*
X158107428Y-99640765D01*
X158131227Y-99634804D01*
X158155495Y-99631204D01*
X158179999Y-99630000D01*
X158830001Y-99630000D01*
X158854505Y-99631204D01*
G37*
G04 #@! TD.AperFunction*
G04 #@! TA.AperFunction,SMDPad,CuDef*
G36*
X156804505Y-99631204D02*
G01*
X156828773Y-99634804D01*
X156852572Y-99640765D01*
X156875671Y-99649030D01*
X156897850Y-99659520D01*
X156918893Y-99672132D01*
X156938599Y-99686747D01*
X156956777Y-99703223D01*
X156973253Y-99721401D01*
X156987868Y-99741107D01*
X157000480Y-99762150D01*
X157010970Y-99784329D01*
X157019235Y-99807428D01*
X157025196Y-99831227D01*
X157028796Y-99855495D01*
X157030000Y-99879999D01*
X157030000Y-100780001D01*
X157028796Y-100804505D01*
X157025196Y-100828773D01*
X157019235Y-100852572D01*
X157010970Y-100875671D01*
X157000480Y-100897850D01*
X156987868Y-100918893D01*
X156973253Y-100938599D01*
X156956777Y-100956777D01*
X156938599Y-100973253D01*
X156918893Y-100987868D01*
X156897850Y-101000480D01*
X156875671Y-101010970D01*
X156852572Y-101019235D01*
X156828773Y-101025196D01*
X156804505Y-101028796D01*
X156780001Y-101030000D01*
X156129999Y-101030000D01*
X156105495Y-101028796D01*
X156081227Y-101025196D01*
X156057428Y-101019235D01*
X156034329Y-101010970D01*
X156012150Y-101000480D01*
X155991107Y-100987868D01*
X155971401Y-100973253D01*
X155953223Y-100956777D01*
X155936747Y-100938599D01*
X155922132Y-100918893D01*
X155909520Y-100897850D01*
X155899030Y-100875671D01*
X155890765Y-100852572D01*
X155884804Y-100828773D01*
X155881204Y-100804505D01*
X155880000Y-100780001D01*
X155880000Y-99879999D01*
X155881204Y-99855495D01*
X155884804Y-99831227D01*
X155890765Y-99807428D01*
X155899030Y-99784329D01*
X155909520Y-99762150D01*
X155922132Y-99741107D01*
X155936747Y-99721401D01*
X155953223Y-99703223D01*
X155971401Y-99686747D01*
X155991107Y-99672132D01*
X156012150Y-99659520D01*
X156034329Y-99649030D01*
X156057428Y-99640765D01*
X156081227Y-99634804D01*
X156105495Y-99631204D01*
X156129999Y-99630000D01*
X156780001Y-99630000D01*
X156804505Y-99631204D01*
G37*
G04 #@! TD.AperFunction*
G04 #@! TA.AperFunction,SMDPad,CuDef*
G36*
X131404505Y-74231204D02*
G01*
X131428773Y-74234804D01*
X131452572Y-74240765D01*
X131475671Y-74249030D01*
X131497850Y-74259520D01*
X131518893Y-74272132D01*
X131538599Y-74286747D01*
X131556777Y-74303223D01*
X131573253Y-74321401D01*
X131587868Y-74341107D01*
X131600480Y-74362150D01*
X131610970Y-74384329D01*
X131619235Y-74407428D01*
X131625196Y-74431227D01*
X131628796Y-74455495D01*
X131630000Y-74479999D01*
X131630000Y-75380001D01*
X131628796Y-75404505D01*
X131625196Y-75428773D01*
X131619235Y-75452572D01*
X131610970Y-75475671D01*
X131600480Y-75497850D01*
X131587868Y-75518893D01*
X131573253Y-75538599D01*
X131556777Y-75556777D01*
X131538599Y-75573253D01*
X131518893Y-75587868D01*
X131497850Y-75600480D01*
X131475671Y-75610970D01*
X131452572Y-75619235D01*
X131428773Y-75625196D01*
X131404505Y-75628796D01*
X131380001Y-75630000D01*
X130729999Y-75630000D01*
X130705495Y-75628796D01*
X130681227Y-75625196D01*
X130657428Y-75619235D01*
X130634329Y-75610970D01*
X130612150Y-75600480D01*
X130591107Y-75587868D01*
X130571401Y-75573253D01*
X130553223Y-75556777D01*
X130536747Y-75538599D01*
X130522132Y-75518893D01*
X130509520Y-75497850D01*
X130499030Y-75475671D01*
X130490765Y-75452572D01*
X130484804Y-75428773D01*
X130481204Y-75404505D01*
X130480000Y-75380001D01*
X130480000Y-74479999D01*
X130481204Y-74455495D01*
X130484804Y-74431227D01*
X130490765Y-74407428D01*
X130499030Y-74384329D01*
X130509520Y-74362150D01*
X130522132Y-74341107D01*
X130536747Y-74321401D01*
X130553223Y-74303223D01*
X130571401Y-74286747D01*
X130591107Y-74272132D01*
X130612150Y-74259520D01*
X130634329Y-74249030D01*
X130657428Y-74240765D01*
X130681227Y-74234804D01*
X130705495Y-74231204D01*
X130729999Y-74230000D01*
X131380001Y-74230000D01*
X131404505Y-74231204D01*
G37*
G04 #@! TD.AperFunction*
G04 #@! TA.AperFunction,SMDPad,CuDef*
G36*
X133454505Y-74231204D02*
G01*
X133478773Y-74234804D01*
X133502572Y-74240765D01*
X133525671Y-74249030D01*
X133547850Y-74259520D01*
X133568893Y-74272132D01*
X133588599Y-74286747D01*
X133606777Y-74303223D01*
X133623253Y-74321401D01*
X133637868Y-74341107D01*
X133650480Y-74362150D01*
X133660970Y-74384329D01*
X133669235Y-74407428D01*
X133675196Y-74431227D01*
X133678796Y-74455495D01*
X133680000Y-74479999D01*
X133680000Y-75380001D01*
X133678796Y-75404505D01*
X133675196Y-75428773D01*
X133669235Y-75452572D01*
X133660970Y-75475671D01*
X133650480Y-75497850D01*
X133637868Y-75518893D01*
X133623253Y-75538599D01*
X133606777Y-75556777D01*
X133588599Y-75573253D01*
X133568893Y-75587868D01*
X133547850Y-75600480D01*
X133525671Y-75610970D01*
X133502572Y-75619235D01*
X133478773Y-75625196D01*
X133454505Y-75628796D01*
X133430001Y-75630000D01*
X132779999Y-75630000D01*
X132755495Y-75628796D01*
X132731227Y-75625196D01*
X132707428Y-75619235D01*
X132684329Y-75610970D01*
X132662150Y-75600480D01*
X132641107Y-75587868D01*
X132621401Y-75573253D01*
X132603223Y-75556777D01*
X132586747Y-75538599D01*
X132572132Y-75518893D01*
X132559520Y-75497850D01*
X132549030Y-75475671D01*
X132540765Y-75452572D01*
X132534804Y-75428773D01*
X132531204Y-75404505D01*
X132530000Y-75380001D01*
X132530000Y-74479999D01*
X132531204Y-74455495D01*
X132534804Y-74431227D01*
X132540765Y-74407428D01*
X132549030Y-74384329D01*
X132559520Y-74362150D01*
X132572132Y-74341107D01*
X132586747Y-74321401D01*
X132603223Y-74303223D01*
X132621401Y-74286747D01*
X132641107Y-74272132D01*
X132662150Y-74259520D01*
X132684329Y-74249030D01*
X132707428Y-74240765D01*
X132731227Y-74234804D01*
X132755495Y-74231204D01*
X132779999Y-74230000D01*
X133430001Y-74230000D01*
X133454505Y-74231204D01*
G37*
G04 #@! TD.AperFunction*
G04 #@! TA.AperFunction,SMDPad,CuDef*
G36*
X132554505Y-93161204D02*
G01*
X132578773Y-93164804D01*
X132602572Y-93170765D01*
X132625671Y-93179030D01*
X132647850Y-93189520D01*
X132668893Y-93202132D01*
X132688599Y-93216747D01*
X132706777Y-93233223D01*
X132723253Y-93251401D01*
X132737868Y-93271107D01*
X132750480Y-93292150D01*
X132760970Y-93314329D01*
X132769235Y-93337428D01*
X132775196Y-93361227D01*
X132778796Y-93385495D01*
X132780000Y-93409999D01*
X132780000Y-94060001D01*
X132778796Y-94084505D01*
X132775196Y-94108773D01*
X132769235Y-94132572D01*
X132760970Y-94155671D01*
X132750480Y-94177850D01*
X132737868Y-94198893D01*
X132723253Y-94218599D01*
X132706777Y-94236777D01*
X132688599Y-94253253D01*
X132668893Y-94267868D01*
X132647850Y-94280480D01*
X132625671Y-94290970D01*
X132602572Y-94299235D01*
X132578773Y-94305196D01*
X132554505Y-94308796D01*
X132530001Y-94310000D01*
X131629999Y-94310000D01*
X131605495Y-94308796D01*
X131581227Y-94305196D01*
X131557428Y-94299235D01*
X131534329Y-94290970D01*
X131512150Y-94280480D01*
X131491107Y-94267868D01*
X131471401Y-94253253D01*
X131453223Y-94236777D01*
X131436747Y-94218599D01*
X131422132Y-94198893D01*
X131409520Y-94177850D01*
X131399030Y-94155671D01*
X131390765Y-94132572D01*
X131384804Y-94108773D01*
X131381204Y-94084505D01*
X131380000Y-94060001D01*
X131380000Y-93409999D01*
X131381204Y-93385495D01*
X131384804Y-93361227D01*
X131390765Y-93337428D01*
X131399030Y-93314329D01*
X131409520Y-93292150D01*
X131422132Y-93271107D01*
X131436747Y-93251401D01*
X131453223Y-93233223D01*
X131471401Y-93216747D01*
X131491107Y-93202132D01*
X131512150Y-93189520D01*
X131534329Y-93179030D01*
X131557428Y-93170765D01*
X131581227Y-93164804D01*
X131605495Y-93161204D01*
X131629999Y-93160000D01*
X132530001Y-93160000D01*
X132554505Y-93161204D01*
G37*
G04 #@! TD.AperFunction*
G04 #@! TA.AperFunction,SMDPad,CuDef*
G36*
X132554505Y-91111204D02*
G01*
X132578773Y-91114804D01*
X132602572Y-91120765D01*
X132625671Y-91129030D01*
X132647850Y-91139520D01*
X132668893Y-91152132D01*
X132688599Y-91166747D01*
X132706777Y-91183223D01*
X132723253Y-91201401D01*
X132737868Y-91221107D01*
X132750480Y-91242150D01*
X132760970Y-91264329D01*
X132769235Y-91287428D01*
X132775196Y-91311227D01*
X132778796Y-91335495D01*
X132780000Y-91359999D01*
X132780000Y-92010001D01*
X132778796Y-92034505D01*
X132775196Y-92058773D01*
X132769235Y-92082572D01*
X132760970Y-92105671D01*
X132750480Y-92127850D01*
X132737868Y-92148893D01*
X132723253Y-92168599D01*
X132706777Y-92186777D01*
X132688599Y-92203253D01*
X132668893Y-92217868D01*
X132647850Y-92230480D01*
X132625671Y-92240970D01*
X132602572Y-92249235D01*
X132578773Y-92255196D01*
X132554505Y-92258796D01*
X132530001Y-92260000D01*
X131629999Y-92260000D01*
X131605495Y-92258796D01*
X131581227Y-92255196D01*
X131557428Y-92249235D01*
X131534329Y-92240970D01*
X131512150Y-92230480D01*
X131491107Y-92217868D01*
X131471401Y-92203253D01*
X131453223Y-92186777D01*
X131436747Y-92168599D01*
X131422132Y-92148893D01*
X131409520Y-92127850D01*
X131399030Y-92105671D01*
X131390765Y-92082572D01*
X131384804Y-92058773D01*
X131381204Y-92034505D01*
X131380000Y-92010001D01*
X131380000Y-91359999D01*
X131381204Y-91335495D01*
X131384804Y-91311227D01*
X131390765Y-91287428D01*
X131399030Y-91264329D01*
X131409520Y-91242150D01*
X131422132Y-91221107D01*
X131436747Y-91201401D01*
X131453223Y-91183223D01*
X131471401Y-91166747D01*
X131491107Y-91152132D01*
X131512150Y-91139520D01*
X131534329Y-91129030D01*
X131557428Y-91120765D01*
X131581227Y-91114804D01*
X131605495Y-91111204D01*
X131629999Y-91110000D01*
X132530001Y-91110000D01*
X132554505Y-91111204D01*
G37*
G04 #@! TD.AperFunction*
D20*
X138430000Y-85090000D02*
X144780000Y-85090000D01*
X157480000Y-85090000D02*
X152400000Y-90170000D01*
X157480000Y-80010000D02*
X157480000Y-85090000D01*
X133105000Y-74930000D02*
X133105000Y-75630000D01*
X151274999Y-89044999D02*
X151600001Y-89370001D01*
X151274999Y-87089999D02*
X151274999Y-89044999D01*
X151859999Y-86504999D02*
X151274999Y-87089999D01*
X152650003Y-86504999D02*
X151859999Y-86504999D01*
X153525001Y-85630001D02*
X152650003Y-86504999D01*
X151600001Y-89370001D02*
X152400000Y-90170000D01*
X150255002Y-81280000D02*
X153525001Y-84549999D01*
X153525001Y-84549999D02*
X153525001Y-85630001D01*
X137160000Y-81280000D02*
X150255002Y-81280000D01*
X133105000Y-77225000D02*
X137160000Y-81280000D01*
X133105000Y-74930000D02*
X133105000Y-77225000D01*
X143265000Y-91685000D02*
X144780000Y-90170000D01*
X132080000Y-91685000D02*
X143265000Y-91685000D01*
X144780000Y-87630000D02*
X144780000Y-90170000D01*
X131380000Y-91685000D02*
X132080000Y-91685000D01*
X131054990Y-91359990D02*
X131380000Y-91685000D01*
X131380000Y-85335000D02*
X131054990Y-85660010D01*
X131054990Y-85660010D02*
X131054990Y-91359990D01*
X132080000Y-85335000D02*
X131380000Y-85335000D01*
X143510000Y-77080000D02*
X143510000Y-74930000D01*
X143685001Y-77255001D02*
X143510000Y-77080000D01*
X148375001Y-77255001D02*
X143685001Y-77255001D01*
X154940000Y-83820000D02*
X148375001Y-77255001D01*
X154940000Y-86360000D02*
X154940000Y-83820000D01*
X153670000Y-87630000D02*
X154940000Y-86360000D01*
X152400000Y-87630000D02*
X153670000Y-87630000D01*
X120650000Y-77470000D02*
X123190000Y-77470000D01*
X125730000Y-74930000D02*
X131055000Y-74930000D01*
X123190000Y-77470000D02*
X125730000Y-74930000D01*
X143755000Y-93735000D02*
X144780000Y-92710000D01*
X132080000Y-93735000D02*
X143755000Y-93735000D01*
X152400000Y-85090000D02*
X144780000Y-92710000D01*
X152400000Y-85090000D02*
X149860000Y-82550000D01*
X149860000Y-82550000D02*
X135890000Y-82550000D01*
X131055000Y-77715000D02*
X131055000Y-74930000D01*
X135890000Y-82550000D02*
X131055000Y-77715000D01*
X156455000Y-100330000D02*
X142160000Y-100330000D01*
X158750000Y-100085000D02*
X158505000Y-100330000D01*
X158750000Y-80010000D02*
X158750000Y-100085000D01*
D21*
G36*
X163145001Y-107265000D02*
G01*
X132241708Y-107265000D01*
X122171708Y-102230000D01*
X134621928Y-102230000D01*
X134634188Y-102354482D01*
X134670498Y-102474180D01*
X134729463Y-102584494D01*
X134808815Y-102681185D01*
X134905506Y-102760537D01*
X135015820Y-102819502D01*
X135135518Y-102855812D01*
X135260000Y-102868072D01*
X136874250Y-102865000D01*
X137033000Y-102706250D01*
X137033000Y-100457000D01*
X134783750Y-100457000D01*
X134625000Y-100615750D01*
X134621928Y-102230000D01*
X122171708Y-102230000D01*
X114571707Y-98430000D01*
X134621928Y-98430000D01*
X134625000Y-100044250D01*
X134783750Y-100203000D01*
X137033000Y-100203000D01*
X137033000Y-97953750D01*
X136874250Y-97795000D01*
X135260000Y-97791928D01*
X135135518Y-97804188D01*
X135015820Y-97840498D01*
X134905506Y-97899463D01*
X134808815Y-97978815D01*
X134729463Y-98075506D01*
X134670498Y-98185820D01*
X134634188Y-98305518D01*
X134621928Y-98430000D01*
X114571707Y-98430000D01*
X109905000Y-96096647D01*
X109905000Y-83639679D01*
X114515000Y-83639679D01*
X114515000Y-85300322D01*
X114538657Y-85540516D01*
X114632149Y-85848715D01*
X114783970Y-86132752D01*
X114988287Y-86381714D01*
X115237249Y-86586031D01*
X115521286Y-86737852D01*
X115829485Y-86831343D01*
X116150000Y-86862911D01*
X116470516Y-86831343D01*
X116778715Y-86737852D01*
X117062752Y-86586031D01*
X117311714Y-86381714D01*
X117516031Y-86132752D01*
X117667852Y-85848715D01*
X117761343Y-85540516D01*
X117785000Y-85300322D01*
X117785000Y-83850434D01*
X118409876Y-83850434D01*
X118440856Y-83978355D01*
X118569990Y-84272761D01*
X118754078Y-84536317D01*
X118986046Y-84758895D01*
X119256980Y-84931942D01*
X119556468Y-85048807D01*
X119873000Y-85105000D01*
X120195568Y-85105000D01*
X119970273Y-85198320D01*
X119735241Y-85355363D01*
X119535363Y-85555241D01*
X119378320Y-85790273D01*
X119270147Y-86051426D01*
X119215000Y-86328665D01*
X119215000Y-86611335D01*
X119270147Y-86888574D01*
X119378320Y-87149727D01*
X119535363Y-87384759D01*
X119735241Y-87584637D01*
X119970273Y-87741680D01*
X120231426Y-87849853D01*
X120508665Y-87905000D01*
X120791335Y-87905000D01*
X121068574Y-87849853D01*
X121329727Y-87741680D01*
X121564759Y-87584637D01*
X121764637Y-87384759D01*
X121921680Y-87149727D01*
X122029853Y-86888574D01*
X122085000Y-86611335D01*
X122085000Y-86328665D01*
X122029853Y-86051426D01*
X121921680Y-85790273D01*
X121764637Y-85555241D01*
X121564759Y-85355363D01*
X121329727Y-85198320D01*
X121104432Y-85105000D01*
X121427000Y-85105000D01*
X121743532Y-85048807D01*
X122043020Y-84931942D01*
X122313954Y-84758895D01*
X122545922Y-84536317D01*
X122730010Y-84272761D01*
X122859144Y-83978355D01*
X122890124Y-83850434D01*
X122790876Y-83639679D01*
X123515000Y-83639679D01*
X123515000Y-85300322D01*
X123538657Y-85540516D01*
X123632149Y-85848715D01*
X123783970Y-86132752D01*
X123988287Y-86381714D01*
X124237249Y-86586031D01*
X124521286Y-86737852D01*
X124829485Y-86831343D01*
X125150000Y-86862911D01*
X125470516Y-86831343D01*
X125778715Y-86737852D01*
X126062752Y-86586031D01*
X126311714Y-86381714D01*
X126516031Y-86132752D01*
X126667852Y-85848715D01*
X126761343Y-85540516D01*
X126785000Y-85300322D01*
X126785000Y-83639678D01*
X126761343Y-83399484D01*
X126667852Y-83091285D01*
X126516031Y-82807248D01*
X126311714Y-82558286D01*
X126062751Y-82353969D01*
X125778714Y-82202148D01*
X125470515Y-82108657D01*
X125150000Y-82077089D01*
X124829484Y-82108657D01*
X124521285Y-82202148D01*
X124237248Y-82353969D01*
X123988286Y-82558286D01*
X123783969Y-82807249D01*
X123632148Y-83091286D01*
X123538657Y-83399485D01*
X123515000Y-83639679D01*
X122790876Y-83639679D01*
X122770777Y-83597000D01*
X120777000Y-83597000D01*
X120777000Y-83617000D01*
X120523000Y-83617000D01*
X120523000Y-83597000D01*
X118529223Y-83597000D01*
X118409876Y-83850434D01*
X117785000Y-83850434D01*
X117785000Y-83639678D01*
X117761343Y-83399484D01*
X117667852Y-83091285D01*
X117666934Y-83089566D01*
X118409876Y-83089566D01*
X118529223Y-83343000D01*
X120523000Y-83343000D01*
X120523000Y-81835000D01*
X120777000Y-81835000D01*
X120777000Y-83343000D01*
X122770777Y-83343000D01*
X122890124Y-83089566D01*
X122859144Y-82961645D01*
X122730010Y-82667239D01*
X122545922Y-82403683D01*
X122313954Y-82181105D01*
X122043020Y-82008058D01*
X121743532Y-81891193D01*
X121427000Y-81835000D01*
X120777000Y-81835000D01*
X120523000Y-81835000D01*
X119873000Y-81835000D01*
X119556468Y-81891193D01*
X119256980Y-82008058D01*
X118986046Y-82181105D01*
X118754078Y-82403683D01*
X118569990Y-82667239D01*
X118440856Y-82961645D01*
X118409876Y-83089566D01*
X117666934Y-83089566D01*
X117516031Y-82807248D01*
X117311714Y-82558286D01*
X117062751Y-82353969D01*
X116778714Y-82202148D01*
X116470515Y-82108657D01*
X116150000Y-82077089D01*
X115829484Y-82108657D01*
X115521285Y-82202148D01*
X115237248Y-82353969D01*
X114988286Y-82558286D01*
X114783969Y-82807249D01*
X114632148Y-83091286D01*
X114538657Y-83399485D01*
X114515000Y-83639679D01*
X109905000Y-83639679D01*
X109905000Y-76470000D01*
X118011928Y-76470000D01*
X118011928Y-78470000D01*
X118024188Y-78594482D01*
X118060498Y-78714180D01*
X118119463Y-78824494D01*
X118198815Y-78921185D01*
X118295506Y-79000537D01*
X118405820Y-79059502D01*
X118525518Y-79095812D01*
X118650000Y-79108072D01*
X122650000Y-79108072D01*
X122774482Y-79095812D01*
X122894180Y-79059502D01*
X123004494Y-79000537D01*
X123101185Y-78921185D01*
X123180537Y-78824494D01*
X123239502Y-78714180D01*
X123275812Y-78594482D01*
X123288072Y-78470000D01*
X123288072Y-78224018D01*
X123338986Y-78219003D01*
X123482247Y-78175546D01*
X123614276Y-78104974D01*
X123730001Y-78010001D01*
X123753804Y-77980997D01*
X126044803Y-75690000D01*
X129900473Y-75690000D01*
X129909528Y-75719851D01*
X129991595Y-75873387D01*
X130102038Y-76007962D01*
X130236613Y-76118405D01*
X130295001Y-76149614D01*
X130295000Y-77677677D01*
X130291324Y-77715000D01*
X130295000Y-77752322D01*
X130295000Y-77752332D01*
X130305997Y-77863985D01*
X130339370Y-77974003D01*
X130349454Y-78007246D01*
X130420026Y-78139276D01*
X130459871Y-78187826D01*
X130514999Y-78255001D01*
X130544003Y-78278804D01*
X135326200Y-83061002D01*
X135349999Y-83090001D01*
X135465724Y-83184974D01*
X135597753Y-83255546D01*
X135741014Y-83299003D01*
X135842484Y-83308997D01*
X135890000Y-83313677D01*
X135927333Y-83310000D01*
X149545199Y-83310000D01*
X151001312Y-84766114D01*
X150965000Y-84948665D01*
X150965000Y-85231335D01*
X151001312Y-85413886D01*
X146215000Y-90200199D01*
X146215000Y-90028665D01*
X146159853Y-89751426D01*
X146051680Y-89490273D01*
X145894637Y-89255241D01*
X145694759Y-89055363D01*
X145540000Y-88951957D01*
X145540000Y-88848043D01*
X145694759Y-88744637D01*
X145894637Y-88544759D01*
X146051680Y-88309727D01*
X146159853Y-88048574D01*
X146215000Y-87771335D01*
X146215000Y-87488665D01*
X146159853Y-87211426D01*
X146051680Y-86950273D01*
X145894637Y-86715241D01*
X145694759Y-86515363D01*
X145462241Y-86360000D01*
X145694759Y-86204637D01*
X145894637Y-86004759D01*
X146051680Y-85769727D01*
X146159853Y-85508574D01*
X146215000Y-85231335D01*
X146215000Y-84948665D01*
X146159853Y-84671426D01*
X146051680Y-84410273D01*
X145894637Y-84175241D01*
X145694759Y-83975363D01*
X145459727Y-83818320D01*
X145198574Y-83710147D01*
X144921335Y-83655000D01*
X144638665Y-83655000D01*
X144361426Y-83710147D01*
X144100273Y-83818320D01*
X143865241Y-83975363D01*
X143665363Y-84175241D01*
X143561957Y-84330000D01*
X139649614Y-84330000D01*
X139618405Y-84271613D01*
X139507962Y-84137038D01*
X139373387Y-84026595D01*
X139219851Y-83944528D01*
X139053255Y-83893992D01*
X138880001Y-83876928D01*
X137979999Y-83876928D01*
X137806745Y-83893992D01*
X137640149Y-83944528D01*
X137486613Y-84026595D01*
X137352038Y-84137038D01*
X137241595Y-84271613D01*
X137159528Y-84425149D01*
X137108992Y-84591745D01*
X137091928Y-84764999D01*
X137091928Y-85415001D01*
X137108992Y-85588255D01*
X137159528Y-85754851D01*
X137241595Y-85908387D01*
X137352038Y-86042962D01*
X137358594Y-86048342D01*
X137278815Y-86113815D01*
X137199463Y-86210506D01*
X137140498Y-86320820D01*
X137104188Y-86440518D01*
X137091928Y-86565000D01*
X137095000Y-86854250D01*
X137253750Y-87013000D01*
X138303000Y-87013000D01*
X138303000Y-86993000D01*
X138557000Y-86993000D01*
X138557000Y-87013000D01*
X139606250Y-87013000D01*
X139765000Y-86854250D01*
X139768072Y-86565000D01*
X139755812Y-86440518D01*
X139719502Y-86320820D01*
X139660537Y-86210506D01*
X139581185Y-86113815D01*
X139501406Y-86048342D01*
X139507962Y-86042962D01*
X139618405Y-85908387D01*
X139649614Y-85850000D01*
X143561957Y-85850000D01*
X143665363Y-86004759D01*
X143865241Y-86204637D01*
X144097759Y-86360000D01*
X143865241Y-86515363D01*
X143665363Y-86715241D01*
X143508320Y-86950273D01*
X143400147Y-87211426D01*
X143345000Y-87488665D01*
X143345000Y-87771335D01*
X143400147Y-88048574D01*
X143508320Y-88309727D01*
X143665363Y-88544759D01*
X143865241Y-88744637D01*
X144020000Y-88848044D01*
X144020001Y-88951956D01*
X143865241Y-89055363D01*
X143665363Y-89255241D01*
X143508320Y-89490273D01*
X143400147Y-89751426D01*
X143345000Y-90028665D01*
X143345000Y-90311335D01*
X143381312Y-90493886D01*
X142950199Y-90925000D01*
X133299614Y-90925000D01*
X133268405Y-90866613D01*
X133157962Y-90732038D01*
X133023387Y-90621595D01*
X132869851Y-90539528D01*
X132703255Y-90488992D01*
X132530001Y-90471928D01*
X131814990Y-90471928D01*
X131814990Y-88574260D01*
X131953000Y-88436250D01*
X131953000Y-87512000D01*
X132207000Y-87512000D01*
X132207000Y-88436250D01*
X132365750Y-88595000D01*
X132780000Y-88598072D01*
X132904482Y-88585812D01*
X133024180Y-88549502D01*
X133134494Y-88490537D01*
X133231185Y-88411185D01*
X133310537Y-88314494D01*
X133369502Y-88204180D01*
X133405812Y-88084482D01*
X133418072Y-87960000D01*
X133415470Y-87715000D01*
X137091928Y-87715000D01*
X137104188Y-87839482D01*
X137140498Y-87959180D01*
X137199463Y-88069494D01*
X137278815Y-88166185D01*
X137375506Y-88245537D01*
X137485820Y-88304502D01*
X137605518Y-88340812D01*
X137730000Y-88353072D01*
X138144250Y-88350000D01*
X138303000Y-88191250D01*
X138303000Y-87267000D01*
X138557000Y-87267000D01*
X138557000Y-88191250D01*
X138715750Y-88350000D01*
X139130000Y-88353072D01*
X139254482Y-88340812D01*
X139374180Y-88304502D01*
X139484494Y-88245537D01*
X139581185Y-88166185D01*
X139660537Y-88069494D01*
X139719502Y-87959180D01*
X139755812Y-87839482D01*
X139768072Y-87715000D01*
X139765000Y-87425750D01*
X139606250Y-87267000D01*
X138557000Y-87267000D01*
X138303000Y-87267000D01*
X137253750Y-87267000D01*
X137095000Y-87425750D01*
X137091928Y-87715000D01*
X133415470Y-87715000D01*
X133415000Y-87670750D01*
X133256250Y-87512000D01*
X132207000Y-87512000D01*
X131953000Y-87512000D01*
X131933000Y-87512000D01*
X131933000Y-87258000D01*
X131953000Y-87258000D01*
X131953000Y-87238000D01*
X132207000Y-87238000D01*
X132207000Y-87258000D01*
X133256250Y-87258000D01*
X133415000Y-87099250D01*
X133418072Y-86810000D01*
X133405812Y-86685518D01*
X133369502Y-86565820D01*
X133310537Y-86455506D01*
X133231185Y-86358815D01*
X133151406Y-86293342D01*
X133157962Y-86287962D01*
X133268405Y-86153387D01*
X133350472Y-85999851D01*
X133401008Y-85833255D01*
X133418072Y-85660001D01*
X133418072Y-85009999D01*
X133401008Y-84836745D01*
X133350472Y-84670149D01*
X133268405Y-84516613D01*
X133157962Y-84382038D01*
X133023387Y-84271595D01*
X132869851Y-84189528D01*
X132703255Y-84138992D01*
X132530001Y-84121928D01*
X131629999Y-84121928D01*
X131456745Y-84138992D01*
X131290149Y-84189528D01*
X131136613Y-84271595D01*
X131002038Y-84382038D01*
X130891595Y-84516613D01*
X130809528Y-84670149D01*
X130758992Y-84836745D01*
X130754134Y-84886065D01*
X130543993Y-85096206D01*
X130514989Y-85120009D01*
X130461675Y-85184973D01*
X130420016Y-85235734D01*
X130366957Y-85335000D01*
X130349444Y-85367764D01*
X130305987Y-85511025D01*
X130294990Y-85622678D01*
X130294990Y-85622688D01*
X130291314Y-85660010D01*
X130294990Y-85697333D01*
X130294991Y-91322658D01*
X130291314Y-91359990D01*
X130305988Y-91508975D01*
X130349444Y-91652236D01*
X130420016Y-91784266D01*
X130460820Y-91833985D01*
X130514990Y-91899991D01*
X130543988Y-91923789D01*
X130754134Y-92133935D01*
X130758992Y-92183255D01*
X130809528Y-92349851D01*
X130891595Y-92503387D01*
X131002038Y-92637962D01*
X131089816Y-92710000D01*
X131002038Y-92782038D01*
X130891595Y-92916613D01*
X130809528Y-93070149D01*
X130758992Y-93236745D01*
X130741928Y-93409999D01*
X130741928Y-94060001D01*
X130758992Y-94233255D01*
X130809528Y-94399851D01*
X130891595Y-94553387D01*
X131002038Y-94687962D01*
X131136613Y-94798405D01*
X131290149Y-94880472D01*
X131456745Y-94931008D01*
X131629999Y-94948072D01*
X132530001Y-94948072D01*
X132703255Y-94931008D01*
X132869851Y-94880472D01*
X133023387Y-94798405D01*
X133157962Y-94687962D01*
X133268405Y-94553387D01*
X133299614Y-94495000D01*
X143717678Y-94495000D01*
X143755000Y-94498676D01*
X143792322Y-94495000D01*
X143792333Y-94495000D01*
X143903986Y-94484003D01*
X144047247Y-94440546D01*
X144179276Y-94369974D01*
X144295001Y-94275001D01*
X144318804Y-94245998D01*
X144456113Y-94108688D01*
X144638665Y-94145000D01*
X144921335Y-94145000D01*
X145198574Y-94089853D01*
X145459727Y-93981680D01*
X145694759Y-93824637D01*
X145894637Y-93624759D01*
X145971316Y-93510000D01*
X150961928Y-93510000D01*
X150974188Y-93634482D01*
X151010498Y-93754180D01*
X151069463Y-93864494D01*
X151148815Y-93961185D01*
X151245506Y-94040537D01*
X151355820Y-94099502D01*
X151475518Y-94135812D01*
X151600000Y-94148072D01*
X152114250Y-94145000D01*
X152273000Y-93986250D01*
X152273000Y-92837000D01*
X152527000Y-92837000D01*
X152527000Y-93986250D01*
X152685750Y-94145000D01*
X153200000Y-94148072D01*
X153324482Y-94135812D01*
X153444180Y-94099502D01*
X153554494Y-94040537D01*
X153651185Y-93961185D01*
X153730537Y-93864494D01*
X153789502Y-93754180D01*
X153825812Y-93634482D01*
X153838072Y-93510000D01*
X153835000Y-92995750D01*
X153676250Y-92837000D01*
X152527000Y-92837000D01*
X152273000Y-92837000D01*
X151123750Y-92837000D01*
X150965000Y-92995750D01*
X150961928Y-93510000D01*
X145971316Y-93510000D01*
X146051680Y-93389727D01*
X146159853Y-93128574D01*
X146215000Y-92851335D01*
X146215000Y-92568665D01*
X146178688Y-92386113D01*
X150514999Y-88049802D01*
X150515000Y-89007667D01*
X150511323Y-89044999D01*
X150525997Y-89193984D01*
X150569453Y-89337245D01*
X150640025Y-89469275D01*
X150693986Y-89535026D01*
X150734999Y-89585000D01*
X150763997Y-89608798D01*
X151001312Y-89846113D01*
X150965000Y-90028665D01*
X150965000Y-90311335D01*
X151020147Y-90588574D01*
X151128320Y-90849727D01*
X151285363Y-91084759D01*
X151483961Y-91283357D01*
X151475518Y-91284188D01*
X151355820Y-91320498D01*
X151245506Y-91379463D01*
X151148815Y-91458815D01*
X151069463Y-91555506D01*
X151010498Y-91665820D01*
X150974188Y-91785518D01*
X150961928Y-91910000D01*
X150965000Y-92424250D01*
X151123750Y-92583000D01*
X152273000Y-92583000D01*
X152273000Y-92563000D01*
X152527000Y-92563000D01*
X152527000Y-92583000D01*
X153676250Y-92583000D01*
X153835000Y-92424250D01*
X153838072Y-91910000D01*
X153825812Y-91785518D01*
X153789502Y-91665820D01*
X153730537Y-91555506D01*
X153651185Y-91458815D01*
X153554494Y-91379463D01*
X153444180Y-91320498D01*
X153324482Y-91284188D01*
X153316039Y-91283357D01*
X153514637Y-91084759D01*
X153671680Y-90849727D01*
X153779853Y-90588574D01*
X153835000Y-90311335D01*
X153835000Y-90028665D01*
X153798688Y-89846113D01*
X157990000Y-85654802D01*
X157990001Y-99014071D01*
X157840149Y-99059528D01*
X157686613Y-99141595D01*
X157552038Y-99252038D01*
X157480000Y-99339816D01*
X157407962Y-99252038D01*
X157273387Y-99141595D01*
X157119851Y-99059528D01*
X156953255Y-99008992D01*
X156780001Y-98991928D01*
X156129999Y-98991928D01*
X155956745Y-99008992D01*
X155790149Y-99059528D01*
X155636613Y-99141595D01*
X155502038Y-99252038D01*
X155391595Y-99386613D01*
X155309528Y-99540149D01*
X155300473Y-99570000D01*
X144695450Y-99570000D01*
X144693739Y-99561399D01*
X144495107Y-99081859D01*
X144206738Y-98650285D01*
X143839715Y-98283262D01*
X143408141Y-97994893D01*
X142928601Y-97796261D01*
X142419525Y-97695000D01*
X141900475Y-97695000D01*
X141391399Y-97796261D01*
X140911859Y-97994893D01*
X140480285Y-98283262D01*
X140113262Y-98650285D01*
X139824893Y-99081859D01*
X139696240Y-99392454D01*
X139698072Y-98430000D01*
X139685812Y-98305518D01*
X139649502Y-98185820D01*
X139590537Y-98075506D01*
X139511185Y-97978815D01*
X139414494Y-97899463D01*
X139304180Y-97840498D01*
X139184482Y-97804188D01*
X139060000Y-97791928D01*
X137445750Y-97795000D01*
X137287000Y-97953750D01*
X137287000Y-100203000D01*
X137307000Y-100203000D01*
X137307000Y-100457000D01*
X137287000Y-100457000D01*
X137287000Y-102706250D01*
X137445750Y-102865000D01*
X139060000Y-102868072D01*
X139184482Y-102855812D01*
X139304180Y-102819502D01*
X139414494Y-102760537D01*
X139511185Y-102681185D01*
X139590537Y-102584494D01*
X139649502Y-102474180D01*
X139685812Y-102354482D01*
X139698072Y-102230000D01*
X139696240Y-101267546D01*
X139824893Y-101578141D01*
X140113262Y-102009715D01*
X140480285Y-102376738D01*
X140911859Y-102665107D01*
X141391399Y-102863739D01*
X141900475Y-102965000D01*
X142419525Y-102965000D01*
X142928601Y-102863739D01*
X143408141Y-102665107D01*
X143839715Y-102376738D01*
X144206738Y-102009715D01*
X144495107Y-101578141D01*
X144693739Y-101098601D01*
X144695450Y-101090000D01*
X155300473Y-101090000D01*
X155309528Y-101119851D01*
X155391595Y-101273387D01*
X155502038Y-101407962D01*
X155636613Y-101518405D01*
X155790149Y-101600472D01*
X155956745Y-101651008D01*
X156129999Y-101668072D01*
X156780001Y-101668072D01*
X156953255Y-101651008D01*
X157119851Y-101600472D01*
X157273387Y-101518405D01*
X157407962Y-101407962D01*
X157480000Y-101320184D01*
X157552038Y-101407962D01*
X157686613Y-101518405D01*
X157840149Y-101600472D01*
X158006745Y-101651008D01*
X158179999Y-101668072D01*
X158830001Y-101668072D01*
X159003255Y-101651008D01*
X159169851Y-101600472D01*
X159323387Y-101518405D01*
X159457962Y-101407962D01*
X159568405Y-101273387D01*
X159650472Y-101119851D01*
X159701008Y-100953255D01*
X159718072Y-100780001D01*
X159718072Y-99879999D01*
X159701008Y-99706745D01*
X159650472Y-99540149D01*
X159568405Y-99386613D01*
X159510000Y-99315446D01*
X159510000Y-81281958D01*
X159652663Y-81345272D01*
X159714190Y-81353964D01*
X159893000Y-81228163D01*
X159893000Y-80463108D01*
X159893215Y-80462399D01*
X159910000Y-80291978D01*
X159910000Y-80137000D01*
X160147000Y-80137000D01*
X160147000Y-81228163D01*
X160325810Y-81353964D01*
X160387337Y-81345272D01*
X160596882Y-81252275D01*
X160784258Y-81120184D01*
X160942264Y-80954076D01*
X161064828Y-80760334D01*
X161147239Y-80546404D01*
X161186331Y-80320507D01*
X161026598Y-80137000D01*
X160147000Y-80137000D01*
X159910000Y-80137000D01*
X159910000Y-79728021D01*
X159893215Y-79557600D01*
X159893000Y-79556891D01*
X159893000Y-78791837D01*
X160147000Y-78791837D01*
X160147000Y-79883000D01*
X161026598Y-79883000D01*
X161186331Y-79699493D01*
X161147239Y-79473596D01*
X161064828Y-79259666D01*
X160942264Y-79065924D01*
X160784258Y-78899816D01*
X160596882Y-78767725D01*
X160387337Y-78674728D01*
X160325810Y-78666036D01*
X160147000Y-78791837D01*
X159893000Y-78791837D01*
X159714190Y-78666036D01*
X159652663Y-78674728D01*
X159443118Y-78767725D01*
X159384669Y-78808929D01*
X159196059Y-78708115D01*
X158977399Y-78641785D01*
X158750000Y-78619388D01*
X158522600Y-78641785D01*
X158313902Y-78705093D01*
X158249180Y-78670498D01*
X158129482Y-78634188D01*
X158005000Y-78621928D01*
X156955000Y-78621928D01*
X156830518Y-78634188D01*
X156710820Y-78670498D01*
X156600506Y-78729463D01*
X156503815Y-78808815D01*
X156424463Y-78905506D01*
X156365498Y-79015820D01*
X156329188Y-79135518D01*
X156316928Y-79260000D01*
X156316928Y-80760000D01*
X156329188Y-80884482D01*
X156365498Y-81004180D01*
X156424463Y-81114494D01*
X156503815Y-81211185D01*
X156600506Y-81290537D01*
X156710820Y-81349502D01*
X156720000Y-81352287D01*
X156720001Y-84775197D01*
X155700000Y-85795198D01*
X155700000Y-83857333D01*
X155703677Y-83820000D01*
X155689003Y-83671014D01*
X155645546Y-83527753D01*
X155574974Y-83395724D01*
X155503799Y-83308997D01*
X155480001Y-83279999D01*
X155451003Y-83256201D01*
X149555966Y-77361164D01*
X149961772Y-77144258D01*
X150177894Y-76777499D01*
X148510000Y-75109605D01*
X148495858Y-75123748D01*
X148316253Y-74944143D01*
X148330395Y-74930000D01*
X148689605Y-74930000D01*
X150357499Y-76597894D01*
X150724258Y-76381772D01*
X150964938Y-75921895D01*
X151111275Y-75423902D01*
X151157648Y-74906929D01*
X151102273Y-74390841D01*
X150947279Y-73895474D01*
X150724258Y-73478228D01*
X150357499Y-73262106D01*
X148689605Y-74930000D01*
X148330395Y-74930000D01*
X146662501Y-73262106D01*
X146295742Y-73478228D01*
X146055062Y-73938105D01*
X146048072Y-73961892D01*
X146048072Y-73082501D01*
X146842106Y-73082501D01*
X148510000Y-74750395D01*
X150177894Y-73082501D01*
X149961772Y-72715742D01*
X149501895Y-72475062D01*
X149003902Y-72328725D01*
X148486929Y-72282352D01*
X147970841Y-72337727D01*
X147475474Y-72492721D01*
X147058228Y-72715742D01*
X146842106Y-73082501D01*
X146048072Y-73082501D01*
X146048072Y-73030000D01*
X146035812Y-72905518D01*
X145999502Y-72785820D01*
X145940537Y-72675506D01*
X145861185Y-72578815D01*
X145764494Y-72499463D01*
X145654180Y-72440498D01*
X145534482Y-72404188D01*
X145410000Y-72391928D01*
X141610000Y-72391928D01*
X141485518Y-72404188D01*
X141365820Y-72440498D01*
X141255506Y-72499463D01*
X141158815Y-72578815D01*
X141079463Y-72675506D01*
X141020498Y-72785820D01*
X140984188Y-72905518D01*
X140971928Y-73030000D01*
X140971928Y-76830000D01*
X140984188Y-76954482D01*
X141020498Y-77074180D01*
X141079463Y-77184494D01*
X141158815Y-77281185D01*
X141255506Y-77360537D01*
X141365820Y-77419502D01*
X141485518Y-77455812D01*
X141610000Y-77468072D01*
X142855674Y-77468072D01*
X142875026Y-77504276D01*
X142889796Y-77522273D01*
X142969999Y-77620001D01*
X142999003Y-77643804D01*
X143121197Y-77765998D01*
X143145000Y-77795002D01*
X143260725Y-77889975D01*
X143392754Y-77960547D01*
X143536015Y-78004004D01*
X143647668Y-78015001D01*
X143647676Y-78015001D01*
X143685001Y-78018677D01*
X143722326Y-78015001D01*
X148060200Y-78015001D01*
X150740322Y-80695124D01*
X150679278Y-80645026D01*
X150547249Y-80574454D01*
X150403988Y-80530997D01*
X150292335Y-80520000D01*
X150292324Y-80520000D01*
X150255002Y-80516324D01*
X150217680Y-80520000D01*
X137474802Y-80520000D01*
X133865000Y-76910199D01*
X133865000Y-76149614D01*
X133923387Y-76118405D01*
X134057962Y-76007962D01*
X134168405Y-75873387D01*
X134250472Y-75719851D01*
X134301008Y-75553255D01*
X134318072Y-75380001D01*
X134318072Y-74479999D01*
X134301008Y-74306745D01*
X134250472Y-74140149D01*
X134168405Y-73986613D01*
X134057962Y-73852038D01*
X133923387Y-73741595D01*
X133769851Y-73659528D01*
X133603255Y-73608992D01*
X133430001Y-73591928D01*
X132779999Y-73591928D01*
X132606745Y-73608992D01*
X132440149Y-73659528D01*
X132286613Y-73741595D01*
X132152038Y-73852038D01*
X132080000Y-73939816D01*
X132007962Y-73852038D01*
X131873387Y-73741595D01*
X131719851Y-73659528D01*
X131553255Y-73608992D01*
X131380001Y-73591928D01*
X130729999Y-73591928D01*
X130556745Y-73608992D01*
X130390149Y-73659528D01*
X130236613Y-73741595D01*
X130102038Y-73852038D01*
X129991595Y-73986613D01*
X129909528Y-74140149D01*
X129900473Y-74170000D01*
X125767322Y-74170000D01*
X125729999Y-74166324D01*
X125692676Y-74170000D01*
X125692667Y-74170000D01*
X125581014Y-74180997D01*
X125437753Y-74224454D01*
X125305724Y-74295026D01*
X125305722Y-74295027D01*
X125305723Y-74295027D01*
X125218996Y-74366201D01*
X125218992Y-74366205D01*
X125189999Y-74389999D01*
X125166205Y-74418992D01*
X123267403Y-76317796D01*
X123239502Y-76225820D01*
X123180537Y-76115506D01*
X123101185Y-76018815D01*
X123004494Y-75939463D01*
X122894180Y-75880498D01*
X122774482Y-75844188D01*
X122650000Y-75831928D01*
X118650000Y-75831928D01*
X118525518Y-75844188D01*
X118405820Y-75880498D01*
X118295506Y-75939463D01*
X118198815Y-76018815D01*
X118119463Y-76115506D01*
X118060498Y-76225820D01*
X118024188Y-76345518D01*
X118011928Y-76470000D01*
X109905000Y-76470000D01*
X109905000Y-67995000D01*
X163145000Y-67995000D01*
X163145001Y-107265000D01*
G37*
X163145001Y-107265000D02*
X132241708Y-107265000D01*
X122171708Y-102230000D01*
X134621928Y-102230000D01*
X134634188Y-102354482D01*
X134670498Y-102474180D01*
X134729463Y-102584494D01*
X134808815Y-102681185D01*
X134905506Y-102760537D01*
X135015820Y-102819502D01*
X135135518Y-102855812D01*
X135260000Y-102868072D01*
X136874250Y-102865000D01*
X137033000Y-102706250D01*
X137033000Y-100457000D01*
X134783750Y-100457000D01*
X134625000Y-100615750D01*
X134621928Y-102230000D01*
X122171708Y-102230000D01*
X114571707Y-98430000D01*
X134621928Y-98430000D01*
X134625000Y-100044250D01*
X134783750Y-100203000D01*
X137033000Y-100203000D01*
X137033000Y-97953750D01*
X136874250Y-97795000D01*
X135260000Y-97791928D01*
X135135518Y-97804188D01*
X135015820Y-97840498D01*
X134905506Y-97899463D01*
X134808815Y-97978815D01*
X134729463Y-98075506D01*
X134670498Y-98185820D01*
X134634188Y-98305518D01*
X134621928Y-98430000D01*
X114571707Y-98430000D01*
X109905000Y-96096647D01*
X109905000Y-83639679D01*
X114515000Y-83639679D01*
X114515000Y-85300322D01*
X114538657Y-85540516D01*
X114632149Y-85848715D01*
X114783970Y-86132752D01*
X114988287Y-86381714D01*
X115237249Y-86586031D01*
X115521286Y-86737852D01*
X115829485Y-86831343D01*
X116150000Y-86862911D01*
X116470516Y-86831343D01*
X116778715Y-86737852D01*
X117062752Y-86586031D01*
X117311714Y-86381714D01*
X117516031Y-86132752D01*
X117667852Y-85848715D01*
X117761343Y-85540516D01*
X117785000Y-85300322D01*
X117785000Y-83850434D01*
X118409876Y-83850434D01*
X118440856Y-83978355D01*
X118569990Y-84272761D01*
X118754078Y-84536317D01*
X118986046Y-84758895D01*
X119256980Y-84931942D01*
X119556468Y-85048807D01*
X119873000Y-85105000D01*
X120195568Y-85105000D01*
X119970273Y-85198320D01*
X119735241Y-85355363D01*
X119535363Y-85555241D01*
X119378320Y-85790273D01*
X119270147Y-86051426D01*
X119215000Y-86328665D01*
X119215000Y-86611335D01*
X119270147Y-86888574D01*
X119378320Y-87149727D01*
X119535363Y-87384759D01*
X119735241Y-87584637D01*
X119970273Y-87741680D01*
X120231426Y-87849853D01*
X120508665Y-87905000D01*
X120791335Y-87905000D01*
X121068574Y-87849853D01*
X121329727Y-87741680D01*
X121564759Y-87584637D01*
X121764637Y-87384759D01*
X121921680Y-87149727D01*
X122029853Y-86888574D01*
X122085000Y-86611335D01*
X122085000Y-86328665D01*
X122029853Y-86051426D01*
X121921680Y-85790273D01*
X121764637Y-85555241D01*
X121564759Y-85355363D01*
X121329727Y-85198320D01*
X121104432Y-85105000D01*
X121427000Y-85105000D01*
X121743532Y-85048807D01*
X122043020Y-84931942D01*
X122313954Y-84758895D01*
X122545922Y-84536317D01*
X122730010Y-84272761D01*
X122859144Y-83978355D01*
X122890124Y-83850434D01*
X122790876Y-83639679D01*
X123515000Y-83639679D01*
X123515000Y-85300322D01*
X123538657Y-85540516D01*
X123632149Y-85848715D01*
X123783970Y-86132752D01*
X123988287Y-86381714D01*
X124237249Y-86586031D01*
X124521286Y-86737852D01*
X124829485Y-86831343D01*
X125150000Y-86862911D01*
X125470516Y-86831343D01*
X125778715Y-86737852D01*
X126062752Y-86586031D01*
X126311714Y-86381714D01*
X126516031Y-86132752D01*
X126667852Y-85848715D01*
X126761343Y-85540516D01*
X126785000Y-85300322D01*
X126785000Y-83639678D01*
X126761343Y-83399484D01*
X126667852Y-83091285D01*
X126516031Y-82807248D01*
X126311714Y-82558286D01*
X126062751Y-82353969D01*
X125778714Y-82202148D01*
X125470515Y-82108657D01*
X125150000Y-82077089D01*
X124829484Y-82108657D01*
X124521285Y-82202148D01*
X124237248Y-82353969D01*
X123988286Y-82558286D01*
X123783969Y-82807249D01*
X123632148Y-83091286D01*
X123538657Y-83399485D01*
X123515000Y-83639679D01*
X122790876Y-83639679D01*
X122770777Y-83597000D01*
X120777000Y-83597000D01*
X120777000Y-83617000D01*
X120523000Y-83617000D01*
X120523000Y-83597000D01*
X118529223Y-83597000D01*
X118409876Y-83850434D01*
X117785000Y-83850434D01*
X117785000Y-83639678D01*
X117761343Y-83399484D01*
X117667852Y-83091285D01*
X117666934Y-83089566D01*
X118409876Y-83089566D01*
X118529223Y-83343000D01*
X120523000Y-83343000D01*
X120523000Y-81835000D01*
X120777000Y-81835000D01*
X120777000Y-83343000D01*
X122770777Y-83343000D01*
X122890124Y-83089566D01*
X122859144Y-82961645D01*
X122730010Y-82667239D01*
X122545922Y-82403683D01*
X122313954Y-82181105D01*
X122043020Y-82008058D01*
X121743532Y-81891193D01*
X121427000Y-81835000D01*
X120777000Y-81835000D01*
X120523000Y-81835000D01*
X119873000Y-81835000D01*
X119556468Y-81891193D01*
X119256980Y-82008058D01*
X118986046Y-82181105D01*
X118754078Y-82403683D01*
X118569990Y-82667239D01*
X118440856Y-82961645D01*
X118409876Y-83089566D01*
X117666934Y-83089566D01*
X117516031Y-82807248D01*
X117311714Y-82558286D01*
X117062751Y-82353969D01*
X116778714Y-82202148D01*
X116470515Y-82108657D01*
X116150000Y-82077089D01*
X115829484Y-82108657D01*
X115521285Y-82202148D01*
X115237248Y-82353969D01*
X114988286Y-82558286D01*
X114783969Y-82807249D01*
X114632148Y-83091286D01*
X114538657Y-83399485D01*
X114515000Y-83639679D01*
X109905000Y-83639679D01*
X109905000Y-76470000D01*
X118011928Y-76470000D01*
X118011928Y-78470000D01*
X118024188Y-78594482D01*
X118060498Y-78714180D01*
X118119463Y-78824494D01*
X118198815Y-78921185D01*
X118295506Y-79000537D01*
X118405820Y-79059502D01*
X118525518Y-79095812D01*
X118650000Y-79108072D01*
X122650000Y-79108072D01*
X122774482Y-79095812D01*
X122894180Y-79059502D01*
X123004494Y-79000537D01*
X123101185Y-78921185D01*
X123180537Y-78824494D01*
X123239502Y-78714180D01*
X123275812Y-78594482D01*
X123288072Y-78470000D01*
X123288072Y-78224018D01*
X123338986Y-78219003D01*
X123482247Y-78175546D01*
X123614276Y-78104974D01*
X123730001Y-78010001D01*
X123753804Y-77980997D01*
X126044803Y-75690000D01*
X129900473Y-75690000D01*
X129909528Y-75719851D01*
X129991595Y-75873387D01*
X130102038Y-76007962D01*
X130236613Y-76118405D01*
X130295001Y-76149614D01*
X130295000Y-77677677D01*
X130291324Y-77715000D01*
X130295000Y-77752322D01*
X130295000Y-77752332D01*
X130305997Y-77863985D01*
X130339370Y-77974003D01*
X130349454Y-78007246D01*
X130420026Y-78139276D01*
X130459871Y-78187826D01*
X130514999Y-78255001D01*
X130544003Y-78278804D01*
X135326200Y-83061002D01*
X135349999Y-83090001D01*
X135465724Y-83184974D01*
X135597753Y-83255546D01*
X135741014Y-83299003D01*
X135842484Y-83308997D01*
X135890000Y-83313677D01*
X135927333Y-83310000D01*
X149545199Y-83310000D01*
X151001312Y-84766114D01*
X150965000Y-84948665D01*
X150965000Y-85231335D01*
X151001312Y-85413886D01*
X146215000Y-90200199D01*
X146215000Y-90028665D01*
X146159853Y-89751426D01*
X146051680Y-89490273D01*
X145894637Y-89255241D01*
X145694759Y-89055363D01*
X145540000Y-88951957D01*
X145540000Y-88848043D01*
X145694759Y-88744637D01*
X145894637Y-88544759D01*
X146051680Y-88309727D01*
X146159853Y-88048574D01*
X146215000Y-87771335D01*
X146215000Y-87488665D01*
X146159853Y-87211426D01*
X146051680Y-86950273D01*
X145894637Y-86715241D01*
X145694759Y-86515363D01*
X145462241Y-86360000D01*
X145694759Y-86204637D01*
X145894637Y-86004759D01*
X146051680Y-85769727D01*
X146159853Y-85508574D01*
X146215000Y-85231335D01*
X146215000Y-84948665D01*
X146159853Y-84671426D01*
X146051680Y-84410273D01*
X145894637Y-84175241D01*
X145694759Y-83975363D01*
X145459727Y-83818320D01*
X145198574Y-83710147D01*
X144921335Y-83655000D01*
X144638665Y-83655000D01*
X144361426Y-83710147D01*
X144100273Y-83818320D01*
X143865241Y-83975363D01*
X143665363Y-84175241D01*
X143561957Y-84330000D01*
X139649614Y-84330000D01*
X139618405Y-84271613D01*
X139507962Y-84137038D01*
X139373387Y-84026595D01*
X139219851Y-83944528D01*
X139053255Y-83893992D01*
X138880001Y-83876928D01*
X137979999Y-83876928D01*
X137806745Y-83893992D01*
X137640149Y-83944528D01*
X137486613Y-84026595D01*
X137352038Y-84137038D01*
X137241595Y-84271613D01*
X137159528Y-84425149D01*
X137108992Y-84591745D01*
X137091928Y-84764999D01*
X137091928Y-85415001D01*
X137108992Y-85588255D01*
X137159528Y-85754851D01*
X137241595Y-85908387D01*
X137352038Y-86042962D01*
X137358594Y-86048342D01*
X137278815Y-86113815D01*
X137199463Y-86210506D01*
X137140498Y-86320820D01*
X137104188Y-86440518D01*
X137091928Y-86565000D01*
X137095000Y-86854250D01*
X137253750Y-87013000D01*
X138303000Y-87013000D01*
X138303000Y-86993000D01*
X138557000Y-86993000D01*
X138557000Y-87013000D01*
X139606250Y-87013000D01*
X139765000Y-86854250D01*
X139768072Y-86565000D01*
X139755812Y-86440518D01*
X139719502Y-86320820D01*
X139660537Y-86210506D01*
X139581185Y-86113815D01*
X139501406Y-86048342D01*
X139507962Y-86042962D01*
X139618405Y-85908387D01*
X139649614Y-85850000D01*
X143561957Y-85850000D01*
X143665363Y-86004759D01*
X143865241Y-86204637D01*
X144097759Y-86360000D01*
X143865241Y-86515363D01*
X143665363Y-86715241D01*
X143508320Y-86950273D01*
X143400147Y-87211426D01*
X143345000Y-87488665D01*
X143345000Y-87771335D01*
X143400147Y-88048574D01*
X143508320Y-88309727D01*
X143665363Y-88544759D01*
X143865241Y-88744637D01*
X144020000Y-88848044D01*
X144020001Y-88951956D01*
X143865241Y-89055363D01*
X143665363Y-89255241D01*
X143508320Y-89490273D01*
X143400147Y-89751426D01*
X143345000Y-90028665D01*
X143345000Y-90311335D01*
X143381312Y-90493886D01*
X142950199Y-90925000D01*
X133299614Y-90925000D01*
X133268405Y-90866613D01*
X133157962Y-90732038D01*
X133023387Y-90621595D01*
X132869851Y-90539528D01*
X132703255Y-90488992D01*
X132530001Y-90471928D01*
X131814990Y-90471928D01*
X131814990Y-88574260D01*
X131953000Y-88436250D01*
X131953000Y-87512000D01*
X132207000Y-87512000D01*
X132207000Y-88436250D01*
X132365750Y-88595000D01*
X132780000Y-88598072D01*
X132904482Y-88585812D01*
X133024180Y-88549502D01*
X133134494Y-88490537D01*
X133231185Y-88411185D01*
X133310537Y-88314494D01*
X133369502Y-88204180D01*
X133405812Y-88084482D01*
X133418072Y-87960000D01*
X133415470Y-87715000D01*
X137091928Y-87715000D01*
X137104188Y-87839482D01*
X137140498Y-87959180D01*
X137199463Y-88069494D01*
X137278815Y-88166185D01*
X137375506Y-88245537D01*
X137485820Y-88304502D01*
X137605518Y-88340812D01*
X137730000Y-88353072D01*
X138144250Y-88350000D01*
X138303000Y-88191250D01*
X138303000Y-87267000D01*
X138557000Y-87267000D01*
X138557000Y-88191250D01*
X138715750Y-88350000D01*
X139130000Y-88353072D01*
X139254482Y-88340812D01*
X139374180Y-88304502D01*
X139484494Y-88245537D01*
X139581185Y-88166185D01*
X139660537Y-88069494D01*
X139719502Y-87959180D01*
X139755812Y-87839482D01*
X139768072Y-87715000D01*
X139765000Y-87425750D01*
X139606250Y-87267000D01*
X138557000Y-87267000D01*
X138303000Y-87267000D01*
X137253750Y-87267000D01*
X137095000Y-87425750D01*
X137091928Y-87715000D01*
X133415470Y-87715000D01*
X133415000Y-87670750D01*
X133256250Y-87512000D01*
X132207000Y-87512000D01*
X131953000Y-87512000D01*
X131933000Y-87512000D01*
X131933000Y-87258000D01*
X131953000Y-87258000D01*
X131953000Y-87238000D01*
X132207000Y-87238000D01*
X132207000Y-87258000D01*
X133256250Y-87258000D01*
X133415000Y-87099250D01*
X133418072Y-86810000D01*
X133405812Y-86685518D01*
X133369502Y-86565820D01*
X133310537Y-86455506D01*
X133231185Y-86358815D01*
X133151406Y-86293342D01*
X133157962Y-86287962D01*
X133268405Y-86153387D01*
X133350472Y-85999851D01*
X133401008Y-85833255D01*
X133418072Y-85660001D01*
X133418072Y-85009999D01*
X133401008Y-84836745D01*
X133350472Y-84670149D01*
X133268405Y-84516613D01*
X133157962Y-84382038D01*
X133023387Y-84271595D01*
X132869851Y-84189528D01*
X132703255Y-84138992D01*
X132530001Y-84121928D01*
X131629999Y-84121928D01*
X131456745Y-84138992D01*
X131290149Y-84189528D01*
X131136613Y-84271595D01*
X131002038Y-84382038D01*
X130891595Y-84516613D01*
X130809528Y-84670149D01*
X130758992Y-84836745D01*
X130754134Y-84886065D01*
X130543993Y-85096206D01*
X130514989Y-85120009D01*
X130461675Y-85184973D01*
X130420016Y-85235734D01*
X130366957Y-85335000D01*
X130349444Y-85367764D01*
X130305987Y-85511025D01*
X130294990Y-85622678D01*
X130294990Y-85622688D01*
X130291314Y-85660010D01*
X130294990Y-85697333D01*
X130294991Y-91322658D01*
X130291314Y-91359990D01*
X130305988Y-91508975D01*
X130349444Y-91652236D01*
X130420016Y-91784266D01*
X130460820Y-91833985D01*
X130514990Y-91899991D01*
X130543988Y-91923789D01*
X130754134Y-92133935D01*
X130758992Y-92183255D01*
X130809528Y-92349851D01*
X130891595Y-92503387D01*
X131002038Y-92637962D01*
X131089816Y-92710000D01*
X131002038Y-92782038D01*
X130891595Y-92916613D01*
X130809528Y-93070149D01*
X130758992Y-93236745D01*
X130741928Y-93409999D01*
X130741928Y-94060001D01*
X130758992Y-94233255D01*
X130809528Y-94399851D01*
X130891595Y-94553387D01*
X131002038Y-94687962D01*
X131136613Y-94798405D01*
X131290149Y-94880472D01*
X131456745Y-94931008D01*
X131629999Y-94948072D01*
X132530001Y-94948072D01*
X132703255Y-94931008D01*
X132869851Y-94880472D01*
X133023387Y-94798405D01*
X133157962Y-94687962D01*
X133268405Y-94553387D01*
X133299614Y-94495000D01*
X143717678Y-94495000D01*
X143755000Y-94498676D01*
X143792322Y-94495000D01*
X143792333Y-94495000D01*
X143903986Y-94484003D01*
X144047247Y-94440546D01*
X144179276Y-94369974D01*
X144295001Y-94275001D01*
X144318804Y-94245998D01*
X144456113Y-94108688D01*
X144638665Y-94145000D01*
X144921335Y-94145000D01*
X145198574Y-94089853D01*
X145459727Y-93981680D01*
X145694759Y-93824637D01*
X145894637Y-93624759D01*
X145971316Y-93510000D01*
X150961928Y-93510000D01*
X150974188Y-93634482D01*
X151010498Y-93754180D01*
X151069463Y-93864494D01*
X151148815Y-93961185D01*
X151245506Y-94040537D01*
X151355820Y-94099502D01*
X151475518Y-94135812D01*
X151600000Y-94148072D01*
X152114250Y-94145000D01*
X152273000Y-93986250D01*
X152273000Y-92837000D01*
X152527000Y-92837000D01*
X152527000Y-93986250D01*
X152685750Y-94145000D01*
X153200000Y-94148072D01*
X153324482Y-94135812D01*
X153444180Y-94099502D01*
X153554494Y-94040537D01*
X153651185Y-93961185D01*
X153730537Y-93864494D01*
X153789502Y-93754180D01*
X153825812Y-93634482D01*
X153838072Y-93510000D01*
X153835000Y-92995750D01*
X153676250Y-92837000D01*
X152527000Y-92837000D01*
X152273000Y-92837000D01*
X151123750Y-92837000D01*
X150965000Y-92995750D01*
X150961928Y-93510000D01*
X145971316Y-93510000D01*
X146051680Y-93389727D01*
X146159853Y-93128574D01*
X146215000Y-92851335D01*
X146215000Y-92568665D01*
X146178688Y-92386113D01*
X150514999Y-88049802D01*
X150515000Y-89007667D01*
X150511323Y-89044999D01*
X150525997Y-89193984D01*
X150569453Y-89337245D01*
X150640025Y-89469275D01*
X150693986Y-89535026D01*
X150734999Y-89585000D01*
X150763997Y-89608798D01*
X151001312Y-89846113D01*
X150965000Y-90028665D01*
X150965000Y-90311335D01*
X151020147Y-90588574D01*
X151128320Y-90849727D01*
X151285363Y-91084759D01*
X151483961Y-91283357D01*
X151475518Y-91284188D01*
X151355820Y-91320498D01*
X151245506Y-91379463D01*
X151148815Y-91458815D01*
X151069463Y-91555506D01*
X151010498Y-91665820D01*
X150974188Y-91785518D01*
X150961928Y-91910000D01*
X150965000Y-92424250D01*
X151123750Y-92583000D01*
X152273000Y-92583000D01*
X152273000Y-92563000D01*
X152527000Y-92563000D01*
X152527000Y-92583000D01*
X153676250Y-92583000D01*
X153835000Y-92424250D01*
X153838072Y-91910000D01*
X153825812Y-91785518D01*
X153789502Y-91665820D01*
X153730537Y-91555506D01*
X153651185Y-91458815D01*
X153554494Y-91379463D01*
X153444180Y-91320498D01*
X153324482Y-91284188D01*
X153316039Y-91283357D01*
X153514637Y-91084759D01*
X153671680Y-90849727D01*
X153779853Y-90588574D01*
X153835000Y-90311335D01*
X153835000Y-90028665D01*
X153798688Y-89846113D01*
X157990000Y-85654802D01*
X157990001Y-99014071D01*
X157840149Y-99059528D01*
X157686613Y-99141595D01*
X157552038Y-99252038D01*
X157480000Y-99339816D01*
X157407962Y-99252038D01*
X157273387Y-99141595D01*
X157119851Y-99059528D01*
X156953255Y-99008992D01*
X156780001Y-98991928D01*
X156129999Y-98991928D01*
X155956745Y-99008992D01*
X155790149Y-99059528D01*
X155636613Y-99141595D01*
X155502038Y-99252038D01*
X155391595Y-99386613D01*
X155309528Y-99540149D01*
X155300473Y-99570000D01*
X144695450Y-99570000D01*
X144693739Y-99561399D01*
X144495107Y-99081859D01*
X144206738Y-98650285D01*
X143839715Y-98283262D01*
X143408141Y-97994893D01*
X142928601Y-97796261D01*
X142419525Y-97695000D01*
X141900475Y-97695000D01*
X141391399Y-97796261D01*
X140911859Y-97994893D01*
X140480285Y-98283262D01*
X140113262Y-98650285D01*
X139824893Y-99081859D01*
X139696240Y-99392454D01*
X139698072Y-98430000D01*
X139685812Y-98305518D01*
X139649502Y-98185820D01*
X139590537Y-98075506D01*
X139511185Y-97978815D01*
X139414494Y-97899463D01*
X139304180Y-97840498D01*
X139184482Y-97804188D01*
X139060000Y-97791928D01*
X137445750Y-97795000D01*
X137287000Y-97953750D01*
X137287000Y-100203000D01*
X137307000Y-100203000D01*
X137307000Y-100457000D01*
X137287000Y-100457000D01*
X137287000Y-102706250D01*
X137445750Y-102865000D01*
X139060000Y-102868072D01*
X139184482Y-102855812D01*
X139304180Y-102819502D01*
X139414494Y-102760537D01*
X139511185Y-102681185D01*
X139590537Y-102584494D01*
X139649502Y-102474180D01*
X139685812Y-102354482D01*
X139698072Y-102230000D01*
X139696240Y-101267546D01*
X139824893Y-101578141D01*
X140113262Y-102009715D01*
X140480285Y-102376738D01*
X140911859Y-102665107D01*
X141391399Y-102863739D01*
X141900475Y-102965000D01*
X142419525Y-102965000D01*
X142928601Y-102863739D01*
X143408141Y-102665107D01*
X143839715Y-102376738D01*
X144206738Y-102009715D01*
X144495107Y-101578141D01*
X144693739Y-101098601D01*
X144695450Y-101090000D01*
X155300473Y-101090000D01*
X155309528Y-101119851D01*
X155391595Y-101273387D01*
X155502038Y-101407962D01*
X155636613Y-101518405D01*
X155790149Y-101600472D01*
X155956745Y-101651008D01*
X156129999Y-101668072D01*
X156780001Y-101668072D01*
X156953255Y-101651008D01*
X157119851Y-101600472D01*
X157273387Y-101518405D01*
X157407962Y-101407962D01*
X157480000Y-101320184D01*
X157552038Y-101407962D01*
X157686613Y-101518405D01*
X157840149Y-101600472D01*
X158006745Y-101651008D01*
X158179999Y-101668072D01*
X158830001Y-101668072D01*
X159003255Y-101651008D01*
X159169851Y-101600472D01*
X159323387Y-101518405D01*
X159457962Y-101407962D01*
X159568405Y-101273387D01*
X159650472Y-101119851D01*
X159701008Y-100953255D01*
X159718072Y-100780001D01*
X159718072Y-99879999D01*
X159701008Y-99706745D01*
X159650472Y-99540149D01*
X159568405Y-99386613D01*
X159510000Y-99315446D01*
X159510000Y-81281958D01*
X159652663Y-81345272D01*
X159714190Y-81353964D01*
X159893000Y-81228163D01*
X159893000Y-80463108D01*
X159893215Y-80462399D01*
X159910000Y-80291978D01*
X159910000Y-80137000D01*
X160147000Y-80137000D01*
X160147000Y-81228163D01*
X160325810Y-81353964D01*
X160387337Y-81345272D01*
X160596882Y-81252275D01*
X160784258Y-81120184D01*
X160942264Y-80954076D01*
X161064828Y-80760334D01*
X161147239Y-80546404D01*
X161186331Y-80320507D01*
X161026598Y-80137000D01*
X160147000Y-80137000D01*
X159910000Y-80137000D01*
X159910000Y-79728021D01*
X159893215Y-79557600D01*
X159893000Y-79556891D01*
X159893000Y-78791837D01*
X160147000Y-78791837D01*
X160147000Y-79883000D01*
X161026598Y-79883000D01*
X161186331Y-79699493D01*
X161147239Y-79473596D01*
X161064828Y-79259666D01*
X160942264Y-79065924D01*
X160784258Y-78899816D01*
X160596882Y-78767725D01*
X160387337Y-78674728D01*
X160325810Y-78666036D01*
X160147000Y-78791837D01*
X159893000Y-78791837D01*
X159714190Y-78666036D01*
X159652663Y-78674728D01*
X159443118Y-78767725D01*
X159384669Y-78808929D01*
X159196059Y-78708115D01*
X158977399Y-78641785D01*
X158750000Y-78619388D01*
X158522600Y-78641785D01*
X158313902Y-78705093D01*
X158249180Y-78670498D01*
X158129482Y-78634188D01*
X158005000Y-78621928D01*
X156955000Y-78621928D01*
X156830518Y-78634188D01*
X156710820Y-78670498D01*
X156600506Y-78729463D01*
X156503815Y-78808815D01*
X156424463Y-78905506D01*
X156365498Y-79015820D01*
X156329188Y-79135518D01*
X156316928Y-79260000D01*
X156316928Y-80760000D01*
X156329188Y-80884482D01*
X156365498Y-81004180D01*
X156424463Y-81114494D01*
X156503815Y-81211185D01*
X156600506Y-81290537D01*
X156710820Y-81349502D01*
X156720000Y-81352287D01*
X156720001Y-84775197D01*
X155700000Y-85795198D01*
X155700000Y-83857333D01*
X155703677Y-83820000D01*
X155689003Y-83671014D01*
X155645546Y-83527753D01*
X155574974Y-83395724D01*
X155503799Y-83308997D01*
X155480001Y-83279999D01*
X155451003Y-83256201D01*
X149555966Y-77361164D01*
X149961772Y-77144258D01*
X150177894Y-76777499D01*
X148510000Y-75109605D01*
X148495858Y-75123748D01*
X148316253Y-74944143D01*
X148330395Y-74930000D01*
X148689605Y-74930000D01*
X150357499Y-76597894D01*
X150724258Y-76381772D01*
X150964938Y-75921895D01*
X151111275Y-75423902D01*
X151157648Y-74906929D01*
X151102273Y-74390841D01*
X150947279Y-73895474D01*
X150724258Y-73478228D01*
X150357499Y-73262106D01*
X148689605Y-74930000D01*
X148330395Y-74930000D01*
X146662501Y-73262106D01*
X146295742Y-73478228D01*
X146055062Y-73938105D01*
X146048072Y-73961892D01*
X146048072Y-73082501D01*
X146842106Y-73082501D01*
X148510000Y-74750395D01*
X150177894Y-73082501D01*
X149961772Y-72715742D01*
X149501895Y-72475062D01*
X149003902Y-72328725D01*
X148486929Y-72282352D01*
X147970841Y-72337727D01*
X147475474Y-72492721D01*
X147058228Y-72715742D01*
X146842106Y-73082501D01*
X146048072Y-73082501D01*
X146048072Y-73030000D01*
X146035812Y-72905518D01*
X145999502Y-72785820D01*
X145940537Y-72675506D01*
X145861185Y-72578815D01*
X145764494Y-72499463D01*
X145654180Y-72440498D01*
X145534482Y-72404188D01*
X145410000Y-72391928D01*
X141610000Y-72391928D01*
X141485518Y-72404188D01*
X141365820Y-72440498D01*
X141255506Y-72499463D01*
X141158815Y-72578815D01*
X141079463Y-72675506D01*
X141020498Y-72785820D01*
X140984188Y-72905518D01*
X140971928Y-73030000D01*
X140971928Y-76830000D01*
X140984188Y-76954482D01*
X141020498Y-77074180D01*
X141079463Y-77184494D01*
X141158815Y-77281185D01*
X141255506Y-77360537D01*
X141365820Y-77419502D01*
X141485518Y-77455812D01*
X141610000Y-77468072D01*
X142855674Y-77468072D01*
X142875026Y-77504276D01*
X142889796Y-77522273D01*
X142969999Y-77620001D01*
X142999003Y-77643804D01*
X143121197Y-77765998D01*
X143145000Y-77795002D01*
X143260725Y-77889975D01*
X143392754Y-77960547D01*
X143536015Y-78004004D01*
X143647668Y-78015001D01*
X143647676Y-78015001D01*
X143685001Y-78018677D01*
X143722326Y-78015001D01*
X148060200Y-78015001D01*
X150740322Y-80695124D01*
X150679278Y-80645026D01*
X150547249Y-80574454D01*
X150403988Y-80530997D01*
X150292335Y-80520000D01*
X150292324Y-80520000D01*
X150255002Y-80516324D01*
X150217680Y-80520000D01*
X137474802Y-80520000D01*
X133865000Y-76910199D01*
X133865000Y-76149614D01*
X133923387Y-76118405D01*
X134057962Y-76007962D01*
X134168405Y-75873387D01*
X134250472Y-75719851D01*
X134301008Y-75553255D01*
X134318072Y-75380001D01*
X134318072Y-74479999D01*
X134301008Y-74306745D01*
X134250472Y-74140149D01*
X134168405Y-73986613D01*
X134057962Y-73852038D01*
X133923387Y-73741595D01*
X133769851Y-73659528D01*
X133603255Y-73608992D01*
X133430001Y-73591928D01*
X132779999Y-73591928D01*
X132606745Y-73608992D01*
X132440149Y-73659528D01*
X132286613Y-73741595D01*
X132152038Y-73852038D01*
X132080000Y-73939816D01*
X132007962Y-73852038D01*
X131873387Y-73741595D01*
X131719851Y-73659528D01*
X131553255Y-73608992D01*
X131380001Y-73591928D01*
X130729999Y-73591928D01*
X130556745Y-73608992D01*
X130390149Y-73659528D01*
X130236613Y-73741595D01*
X130102038Y-73852038D01*
X129991595Y-73986613D01*
X129909528Y-74140149D01*
X129900473Y-74170000D01*
X125767322Y-74170000D01*
X125729999Y-74166324D01*
X125692676Y-74170000D01*
X125692667Y-74170000D01*
X125581014Y-74180997D01*
X125437753Y-74224454D01*
X125305724Y-74295026D01*
X125305722Y-74295027D01*
X125305723Y-74295027D01*
X125218996Y-74366201D01*
X125218992Y-74366205D01*
X125189999Y-74389999D01*
X125166205Y-74418992D01*
X123267403Y-76317796D01*
X123239502Y-76225820D01*
X123180537Y-76115506D01*
X123101185Y-76018815D01*
X123004494Y-75939463D01*
X122894180Y-75880498D01*
X122774482Y-75844188D01*
X122650000Y-75831928D01*
X118650000Y-75831928D01*
X118525518Y-75844188D01*
X118405820Y-75880498D01*
X118295506Y-75939463D01*
X118198815Y-76018815D01*
X118119463Y-76115506D01*
X118060498Y-76225820D01*
X118024188Y-76345518D01*
X118011928Y-76470000D01*
X109905000Y-76470000D01*
X109905000Y-67995000D01*
X163145000Y-67995000D01*
X163145001Y-107265000D01*
M02*
