M48
; DRILL file {KiCad (5.1.5-0-10_14)} date 2020 May 18, Monday 16:23:37
; FORMAT={-:-/ absolute / inch / decimal}
; #@! TF.CreationDate,2020-05-18T16:23:37+03:00
; #@! TF.GenerationSoftware,Kicad,Pcbnew,(5.1.5-0-10_14)
; #@! TF.FileFunction,Plated,1,2,PTH
FMAT,2
INCH
T1C0.0295
T2C0.0315
T3C0.0394
T4C0.1063
%
G90
G05
T1
X6.2Y-3.15
X6.25Y-3.15
X6.3Y-3.15
T2
X5.7Y-3.35
X5.7Y-3.45
X5.7Y-3.55
X5.7Y-3.65
X6.0Y-3.35
X6.0Y-3.45
X6.0Y-3.55
X6.0Y-3.65
T4
X5.4Y-3.95
X5.5969Y-3.95
X5.65Y-2.95
X5.8469Y-2.95
T3
G00X4.5728Y-3.2961
M15
G01X4.5728Y-3.3551
M16
G05
G00X4.7106Y-3.05
M15
G01X4.7894Y-3.05
M16
G05
G00X4.7244Y-3.2862
M15
G01X4.7756Y-3.2862
M16
G05
G00X4.9272Y-3.2961
M15
G01X4.9272Y-3.3551
M16
G05
T0
M30
