G04 #@! TF.GenerationSoftware,KiCad,Pcbnew,(5.1.5-0-10_14)*
G04 #@! TF.CreationDate,2020-05-18T16:23:34+03:00*
G04 #@! TF.ProjectId,final2,66696e61-6c32-42e6-9b69-6361645f7063,rev?*
G04 #@! TF.SameCoordinates,Original*
G04 #@! TF.FileFunction,Copper,L2,Bot*
G04 #@! TF.FilePolarity,Positive*
%FSLAX46Y46*%
G04 Gerber Fmt 4.6, Leading zero omitted, Abs format (unit mm)*
G04 Created by KiCad (PCBNEW (5.1.5-0-10_14)) date 2020-05-18 16:23:34*
%MOMM*%
%LPD*%
G04 APERTURE LIST*
%ADD10R,1.600000X1.600000*%
%ADD11O,1.600000X1.600000*%
%ADD12R,3.800000X3.800000*%
%ADD13C,4.000000*%
%ADD14R,4.000000X2.000000*%
%ADD15O,3.300000X2.000000*%
%ADD16O,2.000000X3.500000*%
%ADD17O,1.050000X1.500000*%
%ADD18R,1.050000X1.500000*%
%ADD19C,0.254000*%
G04 APERTURE END LIST*
D10*
X152400000Y-92710000D03*
D11*
X144780000Y-85090000D03*
X152400000Y-90170000D03*
X144780000Y-87630000D03*
X152400000Y-87630000D03*
X144780000Y-90170000D03*
X152400000Y-85090000D03*
X144780000Y-92710000D03*
D12*
X137160000Y-100330000D03*
D13*
X142160000Y-100330000D03*
X148510000Y-74930000D03*
D12*
X143510000Y-74930000D03*
D14*
X120650000Y-77470000D03*
D15*
X120650000Y-83470000D03*
D16*
X116150000Y-84470000D03*
X125150000Y-84470000D03*
D17*
X158750000Y-80010000D03*
X160020000Y-80010000D03*
D18*
X157480000Y-80010000D03*
D19*
G36*
X163145001Y-107265000D02*
G01*
X132241708Y-107265000D01*
X122171708Y-102230000D01*
X134621928Y-102230000D01*
X134634188Y-102354482D01*
X134670498Y-102474180D01*
X134729463Y-102584494D01*
X134808815Y-102681185D01*
X134905506Y-102760537D01*
X135015820Y-102819502D01*
X135135518Y-102855812D01*
X135260000Y-102868072D01*
X136874250Y-102865000D01*
X137033000Y-102706250D01*
X137033000Y-100457000D01*
X134783750Y-100457000D01*
X134625000Y-100615750D01*
X134621928Y-102230000D01*
X122171708Y-102230000D01*
X114571707Y-98430000D01*
X134621928Y-98430000D01*
X134625000Y-100044250D01*
X134783750Y-100203000D01*
X137033000Y-100203000D01*
X137033000Y-97953750D01*
X137287000Y-97953750D01*
X137287000Y-100203000D01*
X137307000Y-100203000D01*
X137307000Y-100457000D01*
X137287000Y-100457000D01*
X137287000Y-102706250D01*
X137445750Y-102865000D01*
X139060000Y-102868072D01*
X139184482Y-102855812D01*
X139304180Y-102819502D01*
X139414494Y-102760537D01*
X139511185Y-102681185D01*
X139590537Y-102584494D01*
X139649502Y-102474180D01*
X139685812Y-102354482D01*
X139698072Y-102230000D01*
X139696240Y-101267546D01*
X139824893Y-101578141D01*
X140113262Y-102009715D01*
X140480285Y-102376738D01*
X140911859Y-102665107D01*
X141391399Y-102863739D01*
X141900475Y-102965000D01*
X142419525Y-102965000D01*
X142928601Y-102863739D01*
X143408141Y-102665107D01*
X143839715Y-102376738D01*
X144206738Y-102009715D01*
X144495107Y-101578141D01*
X144693739Y-101098601D01*
X144795000Y-100589525D01*
X144795000Y-100070475D01*
X144693739Y-99561399D01*
X144495107Y-99081859D01*
X144206738Y-98650285D01*
X143839715Y-98283262D01*
X143408141Y-97994893D01*
X142928601Y-97796261D01*
X142419525Y-97695000D01*
X141900475Y-97695000D01*
X141391399Y-97796261D01*
X140911859Y-97994893D01*
X140480285Y-98283262D01*
X140113262Y-98650285D01*
X139824893Y-99081859D01*
X139696240Y-99392454D01*
X139698072Y-98430000D01*
X139685812Y-98305518D01*
X139649502Y-98185820D01*
X139590537Y-98075506D01*
X139511185Y-97978815D01*
X139414494Y-97899463D01*
X139304180Y-97840498D01*
X139184482Y-97804188D01*
X139060000Y-97791928D01*
X137445750Y-97795000D01*
X137287000Y-97953750D01*
X137033000Y-97953750D01*
X136874250Y-97795000D01*
X135260000Y-97791928D01*
X135135518Y-97804188D01*
X135015820Y-97840498D01*
X134905506Y-97899463D01*
X134808815Y-97978815D01*
X134729463Y-98075506D01*
X134670498Y-98185820D01*
X134634188Y-98305518D01*
X134621928Y-98430000D01*
X114571707Y-98430000D01*
X109905000Y-96096647D01*
X109905000Y-83639679D01*
X114515000Y-83639679D01*
X114515000Y-85300322D01*
X114538657Y-85540516D01*
X114632149Y-85848715D01*
X114783970Y-86132752D01*
X114988287Y-86381714D01*
X115237249Y-86586031D01*
X115521286Y-86737852D01*
X115829485Y-86831343D01*
X116150000Y-86862911D01*
X116470516Y-86831343D01*
X116778715Y-86737852D01*
X117062752Y-86586031D01*
X117311714Y-86381714D01*
X117516031Y-86132752D01*
X117667852Y-85848715D01*
X117761343Y-85540516D01*
X117785000Y-85300322D01*
X117785000Y-83850434D01*
X118409876Y-83850434D01*
X118440856Y-83978355D01*
X118569990Y-84272761D01*
X118754078Y-84536317D01*
X118986046Y-84758895D01*
X119256980Y-84931942D01*
X119556468Y-85048807D01*
X119873000Y-85105000D01*
X120195568Y-85105000D01*
X119970273Y-85198320D01*
X119735241Y-85355363D01*
X119535363Y-85555241D01*
X119378320Y-85790273D01*
X119270147Y-86051426D01*
X119215000Y-86328665D01*
X119215000Y-86611335D01*
X119270147Y-86888574D01*
X119378320Y-87149727D01*
X119535363Y-87384759D01*
X119735241Y-87584637D01*
X119970273Y-87741680D01*
X120231426Y-87849853D01*
X120508665Y-87905000D01*
X120791335Y-87905000D01*
X121068574Y-87849853D01*
X121329727Y-87741680D01*
X121564759Y-87584637D01*
X121764637Y-87384759D01*
X121921680Y-87149727D01*
X122029853Y-86888574D01*
X122085000Y-86611335D01*
X122085000Y-86328665D01*
X122029853Y-86051426D01*
X121921680Y-85790273D01*
X121764637Y-85555241D01*
X121564759Y-85355363D01*
X121329727Y-85198320D01*
X121104432Y-85105000D01*
X121427000Y-85105000D01*
X121743532Y-85048807D01*
X122043020Y-84931942D01*
X122313954Y-84758895D01*
X122545922Y-84536317D01*
X122730010Y-84272761D01*
X122859144Y-83978355D01*
X122890124Y-83850434D01*
X122790876Y-83639679D01*
X123515000Y-83639679D01*
X123515000Y-85300322D01*
X123538657Y-85540516D01*
X123632149Y-85848715D01*
X123783970Y-86132752D01*
X123988287Y-86381714D01*
X124237249Y-86586031D01*
X124521286Y-86737852D01*
X124829485Y-86831343D01*
X125150000Y-86862911D01*
X125470516Y-86831343D01*
X125778715Y-86737852D01*
X126062752Y-86586031D01*
X126311714Y-86381714D01*
X126516031Y-86132752D01*
X126667852Y-85848715D01*
X126761343Y-85540516D01*
X126785000Y-85300322D01*
X126785000Y-84948665D01*
X143345000Y-84948665D01*
X143345000Y-85231335D01*
X143400147Y-85508574D01*
X143508320Y-85769727D01*
X143665363Y-86004759D01*
X143865241Y-86204637D01*
X144097759Y-86360000D01*
X143865241Y-86515363D01*
X143665363Y-86715241D01*
X143508320Y-86950273D01*
X143400147Y-87211426D01*
X143345000Y-87488665D01*
X143345000Y-87771335D01*
X143400147Y-88048574D01*
X143508320Y-88309727D01*
X143665363Y-88544759D01*
X143865241Y-88744637D01*
X144097759Y-88900000D01*
X143865241Y-89055363D01*
X143665363Y-89255241D01*
X143508320Y-89490273D01*
X143400147Y-89751426D01*
X143345000Y-90028665D01*
X143345000Y-90311335D01*
X143400147Y-90588574D01*
X143508320Y-90849727D01*
X143665363Y-91084759D01*
X143865241Y-91284637D01*
X144097759Y-91440000D01*
X143865241Y-91595363D01*
X143665363Y-91795241D01*
X143508320Y-92030273D01*
X143400147Y-92291426D01*
X143345000Y-92568665D01*
X143345000Y-92851335D01*
X143400147Y-93128574D01*
X143508320Y-93389727D01*
X143665363Y-93624759D01*
X143865241Y-93824637D01*
X144100273Y-93981680D01*
X144361426Y-94089853D01*
X144638665Y-94145000D01*
X144921335Y-94145000D01*
X145198574Y-94089853D01*
X145459727Y-93981680D01*
X145694759Y-93824637D01*
X145894637Y-93624759D01*
X145971316Y-93510000D01*
X150961928Y-93510000D01*
X150974188Y-93634482D01*
X151010498Y-93754180D01*
X151069463Y-93864494D01*
X151148815Y-93961185D01*
X151245506Y-94040537D01*
X151355820Y-94099502D01*
X151475518Y-94135812D01*
X151600000Y-94148072D01*
X152114250Y-94145000D01*
X152273000Y-93986250D01*
X152273000Y-92837000D01*
X152527000Y-92837000D01*
X152527000Y-93986250D01*
X152685750Y-94145000D01*
X153200000Y-94148072D01*
X153324482Y-94135812D01*
X153444180Y-94099502D01*
X153554494Y-94040537D01*
X153651185Y-93961185D01*
X153730537Y-93864494D01*
X153789502Y-93754180D01*
X153825812Y-93634482D01*
X153838072Y-93510000D01*
X153835000Y-92995750D01*
X153676250Y-92837000D01*
X152527000Y-92837000D01*
X152273000Y-92837000D01*
X151123750Y-92837000D01*
X150965000Y-92995750D01*
X150961928Y-93510000D01*
X145971316Y-93510000D01*
X146051680Y-93389727D01*
X146159853Y-93128574D01*
X146215000Y-92851335D01*
X146215000Y-92568665D01*
X146159853Y-92291426D01*
X146051680Y-92030273D01*
X145971317Y-91910000D01*
X150961928Y-91910000D01*
X150965000Y-92424250D01*
X151123750Y-92583000D01*
X152273000Y-92583000D01*
X152273000Y-92563000D01*
X152527000Y-92563000D01*
X152527000Y-92583000D01*
X153676250Y-92583000D01*
X153835000Y-92424250D01*
X153838072Y-91910000D01*
X153825812Y-91785518D01*
X153789502Y-91665820D01*
X153730537Y-91555506D01*
X153651185Y-91458815D01*
X153554494Y-91379463D01*
X153444180Y-91320498D01*
X153324482Y-91284188D01*
X153316039Y-91283357D01*
X153514637Y-91084759D01*
X153671680Y-90849727D01*
X153779853Y-90588574D01*
X153835000Y-90311335D01*
X153835000Y-90028665D01*
X153779853Y-89751426D01*
X153671680Y-89490273D01*
X153514637Y-89255241D01*
X153314759Y-89055363D01*
X153082241Y-88900000D01*
X153314759Y-88744637D01*
X153514637Y-88544759D01*
X153671680Y-88309727D01*
X153779853Y-88048574D01*
X153835000Y-87771335D01*
X153835000Y-87488665D01*
X153779853Y-87211426D01*
X153671680Y-86950273D01*
X153514637Y-86715241D01*
X153314759Y-86515363D01*
X153082241Y-86360000D01*
X153314759Y-86204637D01*
X153514637Y-86004759D01*
X153671680Y-85769727D01*
X153779853Y-85508574D01*
X153835000Y-85231335D01*
X153835000Y-84948665D01*
X153779853Y-84671426D01*
X153671680Y-84410273D01*
X153514637Y-84175241D01*
X153314759Y-83975363D01*
X153079727Y-83818320D01*
X152818574Y-83710147D01*
X152541335Y-83655000D01*
X152258665Y-83655000D01*
X151981426Y-83710147D01*
X151720273Y-83818320D01*
X151485241Y-83975363D01*
X151285363Y-84175241D01*
X151128320Y-84410273D01*
X151020147Y-84671426D01*
X150965000Y-84948665D01*
X150965000Y-85231335D01*
X151020147Y-85508574D01*
X151128320Y-85769727D01*
X151285363Y-86004759D01*
X151485241Y-86204637D01*
X151717759Y-86360000D01*
X151485241Y-86515363D01*
X151285363Y-86715241D01*
X151128320Y-86950273D01*
X151020147Y-87211426D01*
X150965000Y-87488665D01*
X150965000Y-87771335D01*
X151020147Y-88048574D01*
X151128320Y-88309727D01*
X151285363Y-88544759D01*
X151485241Y-88744637D01*
X151717759Y-88900000D01*
X151485241Y-89055363D01*
X151285363Y-89255241D01*
X151128320Y-89490273D01*
X151020147Y-89751426D01*
X150965000Y-90028665D01*
X150965000Y-90311335D01*
X151020147Y-90588574D01*
X151128320Y-90849727D01*
X151285363Y-91084759D01*
X151483961Y-91283357D01*
X151475518Y-91284188D01*
X151355820Y-91320498D01*
X151245506Y-91379463D01*
X151148815Y-91458815D01*
X151069463Y-91555506D01*
X151010498Y-91665820D01*
X150974188Y-91785518D01*
X150961928Y-91910000D01*
X145971317Y-91910000D01*
X145894637Y-91795241D01*
X145694759Y-91595363D01*
X145462241Y-91440000D01*
X145694759Y-91284637D01*
X145894637Y-91084759D01*
X146051680Y-90849727D01*
X146159853Y-90588574D01*
X146215000Y-90311335D01*
X146215000Y-90028665D01*
X146159853Y-89751426D01*
X146051680Y-89490273D01*
X145894637Y-89255241D01*
X145694759Y-89055363D01*
X145462241Y-88900000D01*
X145694759Y-88744637D01*
X145894637Y-88544759D01*
X146051680Y-88309727D01*
X146159853Y-88048574D01*
X146215000Y-87771335D01*
X146215000Y-87488665D01*
X146159853Y-87211426D01*
X146051680Y-86950273D01*
X145894637Y-86715241D01*
X145694759Y-86515363D01*
X145462241Y-86360000D01*
X145694759Y-86204637D01*
X145894637Y-86004759D01*
X146051680Y-85769727D01*
X146159853Y-85508574D01*
X146215000Y-85231335D01*
X146215000Y-84948665D01*
X146159853Y-84671426D01*
X146051680Y-84410273D01*
X145894637Y-84175241D01*
X145694759Y-83975363D01*
X145459727Y-83818320D01*
X145198574Y-83710147D01*
X144921335Y-83655000D01*
X144638665Y-83655000D01*
X144361426Y-83710147D01*
X144100273Y-83818320D01*
X143865241Y-83975363D01*
X143665363Y-84175241D01*
X143508320Y-84410273D01*
X143400147Y-84671426D01*
X143345000Y-84948665D01*
X126785000Y-84948665D01*
X126785000Y-83639678D01*
X126761343Y-83399484D01*
X126667852Y-83091285D01*
X126516031Y-82807248D01*
X126311714Y-82558286D01*
X126062751Y-82353969D01*
X125778714Y-82202148D01*
X125470515Y-82108657D01*
X125150000Y-82077089D01*
X124829484Y-82108657D01*
X124521285Y-82202148D01*
X124237248Y-82353969D01*
X123988286Y-82558286D01*
X123783969Y-82807249D01*
X123632148Y-83091286D01*
X123538657Y-83399485D01*
X123515000Y-83639679D01*
X122790876Y-83639679D01*
X122770777Y-83597000D01*
X120777000Y-83597000D01*
X120777000Y-83617000D01*
X120523000Y-83617000D01*
X120523000Y-83597000D01*
X118529223Y-83597000D01*
X118409876Y-83850434D01*
X117785000Y-83850434D01*
X117785000Y-83639678D01*
X117761343Y-83399484D01*
X117667852Y-83091285D01*
X117666934Y-83089566D01*
X118409876Y-83089566D01*
X118529223Y-83343000D01*
X120523000Y-83343000D01*
X120523000Y-81835000D01*
X120777000Y-81835000D01*
X120777000Y-83343000D01*
X122770777Y-83343000D01*
X122890124Y-83089566D01*
X122859144Y-82961645D01*
X122730010Y-82667239D01*
X122545922Y-82403683D01*
X122313954Y-82181105D01*
X122043020Y-82008058D01*
X121743532Y-81891193D01*
X121427000Y-81835000D01*
X120777000Y-81835000D01*
X120523000Y-81835000D01*
X119873000Y-81835000D01*
X119556468Y-81891193D01*
X119256980Y-82008058D01*
X118986046Y-82181105D01*
X118754078Y-82403683D01*
X118569990Y-82667239D01*
X118440856Y-82961645D01*
X118409876Y-83089566D01*
X117666934Y-83089566D01*
X117516031Y-82807248D01*
X117311714Y-82558286D01*
X117062751Y-82353969D01*
X116778714Y-82202148D01*
X116470515Y-82108657D01*
X116150000Y-82077089D01*
X115829484Y-82108657D01*
X115521285Y-82202148D01*
X115237248Y-82353969D01*
X114988286Y-82558286D01*
X114783969Y-82807249D01*
X114632148Y-83091286D01*
X114538657Y-83399485D01*
X114515000Y-83639679D01*
X109905000Y-83639679D01*
X109905000Y-79260000D01*
X156316928Y-79260000D01*
X156316928Y-80760000D01*
X156329188Y-80884482D01*
X156365498Y-81004180D01*
X156424463Y-81114494D01*
X156503815Y-81211185D01*
X156600506Y-81290537D01*
X156710820Y-81349502D01*
X156830518Y-81385812D01*
X156955000Y-81398072D01*
X158005000Y-81398072D01*
X158129482Y-81385812D01*
X158249180Y-81349502D01*
X158313902Y-81314907D01*
X158522601Y-81378215D01*
X158750000Y-81400612D01*
X158977400Y-81378215D01*
X159196060Y-81311885D01*
X159384669Y-81211071D01*
X159443118Y-81252275D01*
X159652663Y-81345272D01*
X159714190Y-81353964D01*
X159893000Y-81228163D01*
X159893000Y-80463108D01*
X159893215Y-80462399D01*
X159910000Y-80291978D01*
X159910000Y-80137000D01*
X160147000Y-80137000D01*
X160147000Y-81228163D01*
X160325810Y-81353964D01*
X160387337Y-81345272D01*
X160596882Y-81252275D01*
X160784258Y-81120184D01*
X160942264Y-80954076D01*
X161064828Y-80760334D01*
X161147239Y-80546404D01*
X161186331Y-80320507D01*
X161026598Y-80137000D01*
X160147000Y-80137000D01*
X159910000Y-80137000D01*
X159910000Y-79728021D01*
X159893215Y-79557600D01*
X159893000Y-79556891D01*
X159893000Y-78791837D01*
X160147000Y-78791837D01*
X160147000Y-79883000D01*
X161026598Y-79883000D01*
X161186331Y-79699493D01*
X161147239Y-79473596D01*
X161064828Y-79259666D01*
X160942264Y-79065924D01*
X160784258Y-78899816D01*
X160596882Y-78767725D01*
X160387337Y-78674728D01*
X160325810Y-78666036D01*
X160147000Y-78791837D01*
X159893000Y-78791837D01*
X159714190Y-78666036D01*
X159652663Y-78674728D01*
X159443118Y-78767725D01*
X159384669Y-78808929D01*
X159196059Y-78708115D01*
X158977399Y-78641785D01*
X158750000Y-78619388D01*
X158522600Y-78641785D01*
X158313902Y-78705093D01*
X158249180Y-78670498D01*
X158129482Y-78634188D01*
X158005000Y-78621928D01*
X156955000Y-78621928D01*
X156830518Y-78634188D01*
X156710820Y-78670498D01*
X156600506Y-78729463D01*
X156503815Y-78808815D01*
X156424463Y-78905506D01*
X156365498Y-79015820D01*
X156329188Y-79135518D01*
X156316928Y-79260000D01*
X109905000Y-79260000D01*
X109905000Y-76470000D01*
X118011928Y-76470000D01*
X118011928Y-78470000D01*
X118024188Y-78594482D01*
X118060498Y-78714180D01*
X118119463Y-78824494D01*
X118198815Y-78921185D01*
X118295506Y-79000537D01*
X118405820Y-79059502D01*
X118525518Y-79095812D01*
X118650000Y-79108072D01*
X122650000Y-79108072D01*
X122774482Y-79095812D01*
X122894180Y-79059502D01*
X123004494Y-79000537D01*
X123101185Y-78921185D01*
X123180537Y-78824494D01*
X123239502Y-78714180D01*
X123275812Y-78594482D01*
X123288072Y-78470000D01*
X123288072Y-76470000D01*
X123275812Y-76345518D01*
X123239502Y-76225820D01*
X123180537Y-76115506D01*
X123101185Y-76018815D01*
X123004494Y-75939463D01*
X122894180Y-75880498D01*
X122774482Y-75844188D01*
X122650000Y-75831928D01*
X118650000Y-75831928D01*
X118525518Y-75844188D01*
X118405820Y-75880498D01*
X118295506Y-75939463D01*
X118198815Y-76018815D01*
X118119463Y-76115506D01*
X118060498Y-76225820D01*
X118024188Y-76345518D01*
X118011928Y-76470000D01*
X109905000Y-76470000D01*
X109905000Y-73030000D01*
X140971928Y-73030000D01*
X140971928Y-76830000D01*
X140984188Y-76954482D01*
X141020498Y-77074180D01*
X141079463Y-77184494D01*
X141158815Y-77281185D01*
X141255506Y-77360537D01*
X141365820Y-77419502D01*
X141485518Y-77455812D01*
X141610000Y-77468072D01*
X145410000Y-77468072D01*
X145534482Y-77455812D01*
X145654180Y-77419502D01*
X145764494Y-77360537D01*
X145861185Y-77281185D01*
X145940537Y-77184494D01*
X145999502Y-77074180D01*
X146035812Y-76954482D01*
X146048072Y-76830000D01*
X146048072Y-76777499D01*
X146842106Y-76777499D01*
X147058228Y-77144258D01*
X147518105Y-77384938D01*
X148016098Y-77531275D01*
X148533071Y-77577648D01*
X149049159Y-77522273D01*
X149544526Y-77367279D01*
X149961772Y-77144258D01*
X150177894Y-76777499D01*
X148510000Y-75109605D01*
X146842106Y-76777499D01*
X146048072Y-76777499D01*
X146048072Y-75885747D01*
X146072721Y-75964526D01*
X146295742Y-76381772D01*
X146662501Y-76597894D01*
X148330395Y-74930000D01*
X148689605Y-74930000D01*
X150357499Y-76597894D01*
X150724258Y-76381772D01*
X150964938Y-75921895D01*
X151111275Y-75423902D01*
X151157648Y-74906929D01*
X151102273Y-74390841D01*
X150947279Y-73895474D01*
X150724258Y-73478228D01*
X150357499Y-73262106D01*
X148689605Y-74930000D01*
X148330395Y-74930000D01*
X146662501Y-73262106D01*
X146295742Y-73478228D01*
X146055062Y-73938105D01*
X146048072Y-73961892D01*
X146048072Y-73082501D01*
X146842106Y-73082501D01*
X148510000Y-74750395D01*
X150177894Y-73082501D01*
X149961772Y-72715742D01*
X149501895Y-72475062D01*
X149003902Y-72328725D01*
X148486929Y-72282352D01*
X147970841Y-72337727D01*
X147475474Y-72492721D01*
X147058228Y-72715742D01*
X146842106Y-73082501D01*
X146048072Y-73082501D01*
X146048072Y-73030000D01*
X146035812Y-72905518D01*
X145999502Y-72785820D01*
X145940537Y-72675506D01*
X145861185Y-72578815D01*
X145764494Y-72499463D01*
X145654180Y-72440498D01*
X145534482Y-72404188D01*
X145410000Y-72391928D01*
X141610000Y-72391928D01*
X141485518Y-72404188D01*
X141365820Y-72440498D01*
X141255506Y-72499463D01*
X141158815Y-72578815D01*
X141079463Y-72675506D01*
X141020498Y-72785820D01*
X140984188Y-72905518D01*
X140971928Y-73030000D01*
X109905000Y-73030000D01*
X109905000Y-67995000D01*
X163145000Y-67995000D01*
X163145001Y-107265000D01*
G37*
X163145001Y-107265000D02*
X132241708Y-107265000D01*
X122171708Y-102230000D01*
X134621928Y-102230000D01*
X134634188Y-102354482D01*
X134670498Y-102474180D01*
X134729463Y-102584494D01*
X134808815Y-102681185D01*
X134905506Y-102760537D01*
X135015820Y-102819502D01*
X135135518Y-102855812D01*
X135260000Y-102868072D01*
X136874250Y-102865000D01*
X137033000Y-102706250D01*
X137033000Y-100457000D01*
X134783750Y-100457000D01*
X134625000Y-100615750D01*
X134621928Y-102230000D01*
X122171708Y-102230000D01*
X114571707Y-98430000D01*
X134621928Y-98430000D01*
X134625000Y-100044250D01*
X134783750Y-100203000D01*
X137033000Y-100203000D01*
X137033000Y-97953750D01*
X137287000Y-97953750D01*
X137287000Y-100203000D01*
X137307000Y-100203000D01*
X137307000Y-100457000D01*
X137287000Y-100457000D01*
X137287000Y-102706250D01*
X137445750Y-102865000D01*
X139060000Y-102868072D01*
X139184482Y-102855812D01*
X139304180Y-102819502D01*
X139414494Y-102760537D01*
X139511185Y-102681185D01*
X139590537Y-102584494D01*
X139649502Y-102474180D01*
X139685812Y-102354482D01*
X139698072Y-102230000D01*
X139696240Y-101267546D01*
X139824893Y-101578141D01*
X140113262Y-102009715D01*
X140480285Y-102376738D01*
X140911859Y-102665107D01*
X141391399Y-102863739D01*
X141900475Y-102965000D01*
X142419525Y-102965000D01*
X142928601Y-102863739D01*
X143408141Y-102665107D01*
X143839715Y-102376738D01*
X144206738Y-102009715D01*
X144495107Y-101578141D01*
X144693739Y-101098601D01*
X144795000Y-100589525D01*
X144795000Y-100070475D01*
X144693739Y-99561399D01*
X144495107Y-99081859D01*
X144206738Y-98650285D01*
X143839715Y-98283262D01*
X143408141Y-97994893D01*
X142928601Y-97796261D01*
X142419525Y-97695000D01*
X141900475Y-97695000D01*
X141391399Y-97796261D01*
X140911859Y-97994893D01*
X140480285Y-98283262D01*
X140113262Y-98650285D01*
X139824893Y-99081859D01*
X139696240Y-99392454D01*
X139698072Y-98430000D01*
X139685812Y-98305518D01*
X139649502Y-98185820D01*
X139590537Y-98075506D01*
X139511185Y-97978815D01*
X139414494Y-97899463D01*
X139304180Y-97840498D01*
X139184482Y-97804188D01*
X139060000Y-97791928D01*
X137445750Y-97795000D01*
X137287000Y-97953750D01*
X137033000Y-97953750D01*
X136874250Y-97795000D01*
X135260000Y-97791928D01*
X135135518Y-97804188D01*
X135015820Y-97840498D01*
X134905506Y-97899463D01*
X134808815Y-97978815D01*
X134729463Y-98075506D01*
X134670498Y-98185820D01*
X134634188Y-98305518D01*
X134621928Y-98430000D01*
X114571707Y-98430000D01*
X109905000Y-96096647D01*
X109905000Y-83639679D01*
X114515000Y-83639679D01*
X114515000Y-85300322D01*
X114538657Y-85540516D01*
X114632149Y-85848715D01*
X114783970Y-86132752D01*
X114988287Y-86381714D01*
X115237249Y-86586031D01*
X115521286Y-86737852D01*
X115829485Y-86831343D01*
X116150000Y-86862911D01*
X116470516Y-86831343D01*
X116778715Y-86737852D01*
X117062752Y-86586031D01*
X117311714Y-86381714D01*
X117516031Y-86132752D01*
X117667852Y-85848715D01*
X117761343Y-85540516D01*
X117785000Y-85300322D01*
X117785000Y-83850434D01*
X118409876Y-83850434D01*
X118440856Y-83978355D01*
X118569990Y-84272761D01*
X118754078Y-84536317D01*
X118986046Y-84758895D01*
X119256980Y-84931942D01*
X119556468Y-85048807D01*
X119873000Y-85105000D01*
X120195568Y-85105000D01*
X119970273Y-85198320D01*
X119735241Y-85355363D01*
X119535363Y-85555241D01*
X119378320Y-85790273D01*
X119270147Y-86051426D01*
X119215000Y-86328665D01*
X119215000Y-86611335D01*
X119270147Y-86888574D01*
X119378320Y-87149727D01*
X119535363Y-87384759D01*
X119735241Y-87584637D01*
X119970273Y-87741680D01*
X120231426Y-87849853D01*
X120508665Y-87905000D01*
X120791335Y-87905000D01*
X121068574Y-87849853D01*
X121329727Y-87741680D01*
X121564759Y-87584637D01*
X121764637Y-87384759D01*
X121921680Y-87149727D01*
X122029853Y-86888574D01*
X122085000Y-86611335D01*
X122085000Y-86328665D01*
X122029853Y-86051426D01*
X121921680Y-85790273D01*
X121764637Y-85555241D01*
X121564759Y-85355363D01*
X121329727Y-85198320D01*
X121104432Y-85105000D01*
X121427000Y-85105000D01*
X121743532Y-85048807D01*
X122043020Y-84931942D01*
X122313954Y-84758895D01*
X122545922Y-84536317D01*
X122730010Y-84272761D01*
X122859144Y-83978355D01*
X122890124Y-83850434D01*
X122790876Y-83639679D01*
X123515000Y-83639679D01*
X123515000Y-85300322D01*
X123538657Y-85540516D01*
X123632149Y-85848715D01*
X123783970Y-86132752D01*
X123988287Y-86381714D01*
X124237249Y-86586031D01*
X124521286Y-86737852D01*
X124829485Y-86831343D01*
X125150000Y-86862911D01*
X125470516Y-86831343D01*
X125778715Y-86737852D01*
X126062752Y-86586031D01*
X126311714Y-86381714D01*
X126516031Y-86132752D01*
X126667852Y-85848715D01*
X126761343Y-85540516D01*
X126785000Y-85300322D01*
X126785000Y-84948665D01*
X143345000Y-84948665D01*
X143345000Y-85231335D01*
X143400147Y-85508574D01*
X143508320Y-85769727D01*
X143665363Y-86004759D01*
X143865241Y-86204637D01*
X144097759Y-86360000D01*
X143865241Y-86515363D01*
X143665363Y-86715241D01*
X143508320Y-86950273D01*
X143400147Y-87211426D01*
X143345000Y-87488665D01*
X143345000Y-87771335D01*
X143400147Y-88048574D01*
X143508320Y-88309727D01*
X143665363Y-88544759D01*
X143865241Y-88744637D01*
X144097759Y-88900000D01*
X143865241Y-89055363D01*
X143665363Y-89255241D01*
X143508320Y-89490273D01*
X143400147Y-89751426D01*
X143345000Y-90028665D01*
X143345000Y-90311335D01*
X143400147Y-90588574D01*
X143508320Y-90849727D01*
X143665363Y-91084759D01*
X143865241Y-91284637D01*
X144097759Y-91440000D01*
X143865241Y-91595363D01*
X143665363Y-91795241D01*
X143508320Y-92030273D01*
X143400147Y-92291426D01*
X143345000Y-92568665D01*
X143345000Y-92851335D01*
X143400147Y-93128574D01*
X143508320Y-93389727D01*
X143665363Y-93624759D01*
X143865241Y-93824637D01*
X144100273Y-93981680D01*
X144361426Y-94089853D01*
X144638665Y-94145000D01*
X144921335Y-94145000D01*
X145198574Y-94089853D01*
X145459727Y-93981680D01*
X145694759Y-93824637D01*
X145894637Y-93624759D01*
X145971316Y-93510000D01*
X150961928Y-93510000D01*
X150974188Y-93634482D01*
X151010498Y-93754180D01*
X151069463Y-93864494D01*
X151148815Y-93961185D01*
X151245506Y-94040537D01*
X151355820Y-94099502D01*
X151475518Y-94135812D01*
X151600000Y-94148072D01*
X152114250Y-94145000D01*
X152273000Y-93986250D01*
X152273000Y-92837000D01*
X152527000Y-92837000D01*
X152527000Y-93986250D01*
X152685750Y-94145000D01*
X153200000Y-94148072D01*
X153324482Y-94135812D01*
X153444180Y-94099502D01*
X153554494Y-94040537D01*
X153651185Y-93961185D01*
X153730537Y-93864494D01*
X153789502Y-93754180D01*
X153825812Y-93634482D01*
X153838072Y-93510000D01*
X153835000Y-92995750D01*
X153676250Y-92837000D01*
X152527000Y-92837000D01*
X152273000Y-92837000D01*
X151123750Y-92837000D01*
X150965000Y-92995750D01*
X150961928Y-93510000D01*
X145971316Y-93510000D01*
X146051680Y-93389727D01*
X146159853Y-93128574D01*
X146215000Y-92851335D01*
X146215000Y-92568665D01*
X146159853Y-92291426D01*
X146051680Y-92030273D01*
X145971317Y-91910000D01*
X150961928Y-91910000D01*
X150965000Y-92424250D01*
X151123750Y-92583000D01*
X152273000Y-92583000D01*
X152273000Y-92563000D01*
X152527000Y-92563000D01*
X152527000Y-92583000D01*
X153676250Y-92583000D01*
X153835000Y-92424250D01*
X153838072Y-91910000D01*
X153825812Y-91785518D01*
X153789502Y-91665820D01*
X153730537Y-91555506D01*
X153651185Y-91458815D01*
X153554494Y-91379463D01*
X153444180Y-91320498D01*
X153324482Y-91284188D01*
X153316039Y-91283357D01*
X153514637Y-91084759D01*
X153671680Y-90849727D01*
X153779853Y-90588574D01*
X153835000Y-90311335D01*
X153835000Y-90028665D01*
X153779853Y-89751426D01*
X153671680Y-89490273D01*
X153514637Y-89255241D01*
X153314759Y-89055363D01*
X153082241Y-88900000D01*
X153314759Y-88744637D01*
X153514637Y-88544759D01*
X153671680Y-88309727D01*
X153779853Y-88048574D01*
X153835000Y-87771335D01*
X153835000Y-87488665D01*
X153779853Y-87211426D01*
X153671680Y-86950273D01*
X153514637Y-86715241D01*
X153314759Y-86515363D01*
X153082241Y-86360000D01*
X153314759Y-86204637D01*
X153514637Y-86004759D01*
X153671680Y-85769727D01*
X153779853Y-85508574D01*
X153835000Y-85231335D01*
X153835000Y-84948665D01*
X153779853Y-84671426D01*
X153671680Y-84410273D01*
X153514637Y-84175241D01*
X153314759Y-83975363D01*
X153079727Y-83818320D01*
X152818574Y-83710147D01*
X152541335Y-83655000D01*
X152258665Y-83655000D01*
X151981426Y-83710147D01*
X151720273Y-83818320D01*
X151485241Y-83975363D01*
X151285363Y-84175241D01*
X151128320Y-84410273D01*
X151020147Y-84671426D01*
X150965000Y-84948665D01*
X150965000Y-85231335D01*
X151020147Y-85508574D01*
X151128320Y-85769727D01*
X151285363Y-86004759D01*
X151485241Y-86204637D01*
X151717759Y-86360000D01*
X151485241Y-86515363D01*
X151285363Y-86715241D01*
X151128320Y-86950273D01*
X151020147Y-87211426D01*
X150965000Y-87488665D01*
X150965000Y-87771335D01*
X151020147Y-88048574D01*
X151128320Y-88309727D01*
X151285363Y-88544759D01*
X151485241Y-88744637D01*
X151717759Y-88900000D01*
X151485241Y-89055363D01*
X151285363Y-89255241D01*
X151128320Y-89490273D01*
X151020147Y-89751426D01*
X150965000Y-90028665D01*
X150965000Y-90311335D01*
X151020147Y-90588574D01*
X151128320Y-90849727D01*
X151285363Y-91084759D01*
X151483961Y-91283357D01*
X151475518Y-91284188D01*
X151355820Y-91320498D01*
X151245506Y-91379463D01*
X151148815Y-91458815D01*
X151069463Y-91555506D01*
X151010498Y-91665820D01*
X150974188Y-91785518D01*
X150961928Y-91910000D01*
X145971317Y-91910000D01*
X145894637Y-91795241D01*
X145694759Y-91595363D01*
X145462241Y-91440000D01*
X145694759Y-91284637D01*
X145894637Y-91084759D01*
X146051680Y-90849727D01*
X146159853Y-90588574D01*
X146215000Y-90311335D01*
X146215000Y-90028665D01*
X146159853Y-89751426D01*
X146051680Y-89490273D01*
X145894637Y-89255241D01*
X145694759Y-89055363D01*
X145462241Y-88900000D01*
X145694759Y-88744637D01*
X145894637Y-88544759D01*
X146051680Y-88309727D01*
X146159853Y-88048574D01*
X146215000Y-87771335D01*
X146215000Y-87488665D01*
X146159853Y-87211426D01*
X146051680Y-86950273D01*
X145894637Y-86715241D01*
X145694759Y-86515363D01*
X145462241Y-86360000D01*
X145694759Y-86204637D01*
X145894637Y-86004759D01*
X146051680Y-85769727D01*
X146159853Y-85508574D01*
X146215000Y-85231335D01*
X146215000Y-84948665D01*
X146159853Y-84671426D01*
X146051680Y-84410273D01*
X145894637Y-84175241D01*
X145694759Y-83975363D01*
X145459727Y-83818320D01*
X145198574Y-83710147D01*
X144921335Y-83655000D01*
X144638665Y-83655000D01*
X144361426Y-83710147D01*
X144100273Y-83818320D01*
X143865241Y-83975363D01*
X143665363Y-84175241D01*
X143508320Y-84410273D01*
X143400147Y-84671426D01*
X143345000Y-84948665D01*
X126785000Y-84948665D01*
X126785000Y-83639678D01*
X126761343Y-83399484D01*
X126667852Y-83091285D01*
X126516031Y-82807248D01*
X126311714Y-82558286D01*
X126062751Y-82353969D01*
X125778714Y-82202148D01*
X125470515Y-82108657D01*
X125150000Y-82077089D01*
X124829484Y-82108657D01*
X124521285Y-82202148D01*
X124237248Y-82353969D01*
X123988286Y-82558286D01*
X123783969Y-82807249D01*
X123632148Y-83091286D01*
X123538657Y-83399485D01*
X123515000Y-83639679D01*
X122790876Y-83639679D01*
X122770777Y-83597000D01*
X120777000Y-83597000D01*
X120777000Y-83617000D01*
X120523000Y-83617000D01*
X120523000Y-83597000D01*
X118529223Y-83597000D01*
X118409876Y-83850434D01*
X117785000Y-83850434D01*
X117785000Y-83639678D01*
X117761343Y-83399484D01*
X117667852Y-83091285D01*
X117666934Y-83089566D01*
X118409876Y-83089566D01*
X118529223Y-83343000D01*
X120523000Y-83343000D01*
X120523000Y-81835000D01*
X120777000Y-81835000D01*
X120777000Y-83343000D01*
X122770777Y-83343000D01*
X122890124Y-83089566D01*
X122859144Y-82961645D01*
X122730010Y-82667239D01*
X122545922Y-82403683D01*
X122313954Y-82181105D01*
X122043020Y-82008058D01*
X121743532Y-81891193D01*
X121427000Y-81835000D01*
X120777000Y-81835000D01*
X120523000Y-81835000D01*
X119873000Y-81835000D01*
X119556468Y-81891193D01*
X119256980Y-82008058D01*
X118986046Y-82181105D01*
X118754078Y-82403683D01*
X118569990Y-82667239D01*
X118440856Y-82961645D01*
X118409876Y-83089566D01*
X117666934Y-83089566D01*
X117516031Y-82807248D01*
X117311714Y-82558286D01*
X117062751Y-82353969D01*
X116778714Y-82202148D01*
X116470515Y-82108657D01*
X116150000Y-82077089D01*
X115829484Y-82108657D01*
X115521285Y-82202148D01*
X115237248Y-82353969D01*
X114988286Y-82558286D01*
X114783969Y-82807249D01*
X114632148Y-83091286D01*
X114538657Y-83399485D01*
X114515000Y-83639679D01*
X109905000Y-83639679D01*
X109905000Y-79260000D01*
X156316928Y-79260000D01*
X156316928Y-80760000D01*
X156329188Y-80884482D01*
X156365498Y-81004180D01*
X156424463Y-81114494D01*
X156503815Y-81211185D01*
X156600506Y-81290537D01*
X156710820Y-81349502D01*
X156830518Y-81385812D01*
X156955000Y-81398072D01*
X158005000Y-81398072D01*
X158129482Y-81385812D01*
X158249180Y-81349502D01*
X158313902Y-81314907D01*
X158522601Y-81378215D01*
X158750000Y-81400612D01*
X158977400Y-81378215D01*
X159196060Y-81311885D01*
X159384669Y-81211071D01*
X159443118Y-81252275D01*
X159652663Y-81345272D01*
X159714190Y-81353964D01*
X159893000Y-81228163D01*
X159893000Y-80463108D01*
X159893215Y-80462399D01*
X159910000Y-80291978D01*
X159910000Y-80137000D01*
X160147000Y-80137000D01*
X160147000Y-81228163D01*
X160325810Y-81353964D01*
X160387337Y-81345272D01*
X160596882Y-81252275D01*
X160784258Y-81120184D01*
X160942264Y-80954076D01*
X161064828Y-80760334D01*
X161147239Y-80546404D01*
X161186331Y-80320507D01*
X161026598Y-80137000D01*
X160147000Y-80137000D01*
X159910000Y-80137000D01*
X159910000Y-79728021D01*
X159893215Y-79557600D01*
X159893000Y-79556891D01*
X159893000Y-78791837D01*
X160147000Y-78791837D01*
X160147000Y-79883000D01*
X161026598Y-79883000D01*
X161186331Y-79699493D01*
X161147239Y-79473596D01*
X161064828Y-79259666D01*
X160942264Y-79065924D01*
X160784258Y-78899816D01*
X160596882Y-78767725D01*
X160387337Y-78674728D01*
X160325810Y-78666036D01*
X160147000Y-78791837D01*
X159893000Y-78791837D01*
X159714190Y-78666036D01*
X159652663Y-78674728D01*
X159443118Y-78767725D01*
X159384669Y-78808929D01*
X159196059Y-78708115D01*
X158977399Y-78641785D01*
X158750000Y-78619388D01*
X158522600Y-78641785D01*
X158313902Y-78705093D01*
X158249180Y-78670498D01*
X158129482Y-78634188D01*
X158005000Y-78621928D01*
X156955000Y-78621928D01*
X156830518Y-78634188D01*
X156710820Y-78670498D01*
X156600506Y-78729463D01*
X156503815Y-78808815D01*
X156424463Y-78905506D01*
X156365498Y-79015820D01*
X156329188Y-79135518D01*
X156316928Y-79260000D01*
X109905000Y-79260000D01*
X109905000Y-76470000D01*
X118011928Y-76470000D01*
X118011928Y-78470000D01*
X118024188Y-78594482D01*
X118060498Y-78714180D01*
X118119463Y-78824494D01*
X118198815Y-78921185D01*
X118295506Y-79000537D01*
X118405820Y-79059502D01*
X118525518Y-79095812D01*
X118650000Y-79108072D01*
X122650000Y-79108072D01*
X122774482Y-79095812D01*
X122894180Y-79059502D01*
X123004494Y-79000537D01*
X123101185Y-78921185D01*
X123180537Y-78824494D01*
X123239502Y-78714180D01*
X123275812Y-78594482D01*
X123288072Y-78470000D01*
X123288072Y-76470000D01*
X123275812Y-76345518D01*
X123239502Y-76225820D01*
X123180537Y-76115506D01*
X123101185Y-76018815D01*
X123004494Y-75939463D01*
X122894180Y-75880498D01*
X122774482Y-75844188D01*
X122650000Y-75831928D01*
X118650000Y-75831928D01*
X118525518Y-75844188D01*
X118405820Y-75880498D01*
X118295506Y-75939463D01*
X118198815Y-76018815D01*
X118119463Y-76115506D01*
X118060498Y-76225820D01*
X118024188Y-76345518D01*
X118011928Y-76470000D01*
X109905000Y-76470000D01*
X109905000Y-73030000D01*
X140971928Y-73030000D01*
X140971928Y-76830000D01*
X140984188Y-76954482D01*
X141020498Y-77074180D01*
X141079463Y-77184494D01*
X141158815Y-77281185D01*
X141255506Y-77360537D01*
X141365820Y-77419502D01*
X141485518Y-77455812D01*
X141610000Y-77468072D01*
X145410000Y-77468072D01*
X145534482Y-77455812D01*
X145654180Y-77419502D01*
X145764494Y-77360537D01*
X145861185Y-77281185D01*
X145940537Y-77184494D01*
X145999502Y-77074180D01*
X146035812Y-76954482D01*
X146048072Y-76830000D01*
X146048072Y-76777499D01*
X146842106Y-76777499D01*
X147058228Y-77144258D01*
X147518105Y-77384938D01*
X148016098Y-77531275D01*
X148533071Y-77577648D01*
X149049159Y-77522273D01*
X149544526Y-77367279D01*
X149961772Y-77144258D01*
X150177894Y-76777499D01*
X148510000Y-75109605D01*
X146842106Y-76777499D01*
X146048072Y-76777499D01*
X146048072Y-75885747D01*
X146072721Y-75964526D01*
X146295742Y-76381772D01*
X146662501Y-76597894D01*
X148330395Y-74930000D01*
X148689605Y-74930000D01*
X150357499Y-76597894D01*
X150724258Y-76381772D01*
X150964938Y-75921895D01*
X151111275Y-75423902D01*
X151157648Y-74906929D01*
X151102273Y-74390841D01*
X150947279Y-73895474D01*
X150724258Y-73478228D01*
X150357499Y-73262106D01*
X148689605Y-74930000D01*
X148330395Y-74930000D01*
X146662501Y-73262106D01*
X146295742Y-73478228D01*
X146055062Y-73938105D01*
X146048072Y-73961892D01*
X146048072Y-73082501D01*
X146842106Y-73082501D01*
X148510000Y-74750395D01*
X150177894Y-73082501D01*
X149961772Y-72715742D01*
X149501895Y-72475062D01*
X149003902Y-72328725D01*
X148486929Y-72282352D01*
X147970841Y-72337727D01*
X147475474Y-72492721D01*
X147058228Y-72715742D01*
X146842106Y-73082501D01*
X146048072Y-73082501D01*
X146048072Y-73030000D01*
X146035812Y-72905518D01*
X145999502Y-72785820D01*
X145940537Y-72675506D01*
X145861185Y-72578815D01*
X145764494Y-72499463D01*
X145654180Y-72440498D01*
X145534482Y-72404188D01*
X145410000Y-72391928D01*
X141610000Y-72391928D01*
X141485518Y-72404188D01*
X141365820Y-72440498D01*
X141255506Y-72499463D01*
X141158815Y-72578815D01*
X141079463Y-72675506D01*
X141020498Y-72785820D01*
X140984188Y-72905518D01*
X140971928Y-73030000D01*
X109905000Y-73030000D01*
X109905000Y-67995000D01*
X163145000Y-67995000D01*
X163145001Y-107265000D01*
M02*
