G04 #@! TF.GenerationSoftware,KiCad,Pcbnew,(5.1.5-0-10_14)*
G04 #@! TF.CreationDate,2020-05-17T15:29:12+03:00*
G04 #@! TF.ProjectId,final,66696e61-6c2e-46b6-9963-61645f706362,rev?*
G04 #@! TF.SameCoordinates,Original*
G04 #@! TF.FileFunction,Soldermask,Bot*
G04 #@! TF.FilePolarity,Negative*
%FSLAX46Y46*%
G04 Gerber Fmt 4.6, Leading zero omitted, Abs format (unit mm)*
G04 Created by KiCad (PCBNEW (5.1.5-0-10_14)) date 2020-05-17 15:29:12*
%MOMM*%
%LPD*%
G04 APERTURE LIST*
%ADD10C,0.100000*%
G04 APERTURE END LIST*
D10*
G36*
X152918254Y-118677818D02*
G01*
X153291511Y-118832426D01*
X153291513Y-118832427D01*
X153627436Y-119056884D01*
X153913116Y-119342564D01*
X154137574Y-119678489D01*
X154292182Y-120051746D01*
X154371000Y-120447993D01*
X154371000Y-120852007D01*
X154292182Y-121248254D01*
X154137574Y-121621511D01*
X154137573Y-121621513D01*
X153913116Y-121957436D01*
X153627436Y-122243116D01*
X153291513Y-122467573D01*
X153291512Y-122467574D01*
X153291511Y-122467574D01*
X152918254Y-122622182D01*
X152522007Y-122701000D01*
X152117993Y-122701000D01*
X151721746Y-122622182D01*
X151348489Y-122467574D01*
X151348488Y-122467574D01*
X151348487Y-122467573D01*
X151012564Y-122243116D01*
X150726884Y-121957436D01*
X150502427Y-121621513D01*
X150502426Y-121621511D01*
X150347818Y-121248254D01*
X150269000Y-120852007D01*
X150269000Y-120447993D01*
X150347818Y-120051746D01*
X150502426Y-119678489D01*
X150726884Y-119342564D01*
X151012564Y-119056884D01*
X151348487Y-118832427D01*
X151348489Y-118832426D01*
X151721746Y-118677818D01*
X152117993Y-118599000D01*
X152522007Y-118599000D01*
X152918254Y-118677818D01*
G37*
G36*
X149271000Y-122601000D02*
G01*
X145369000Y-122601000D01*
X145369000Y-118699000D01*
X149271000Y-118699000D01*
X149271000Y-122601000D01*
G37*
G36*
X160871000Y-104991000D02*
G01*
X159169000Y-104991000D01*
X159169000Y-103289000D01*
X160871000Y-103289000D01*
X160871000Y-104991000D01*
G37*
G36*
X152648228Y-103321703D02*
G01*
X152803100Y-103385853D01*
X152942481Y-103478985D01*
X153061015Y-103597519D01*
X153154147Y-103736900D01*
X153218297Y-103891772D01*
X153251000Y-104056184D01*
X153251000Y-104223816D01*
X153218297Y-104388228D01*
X153154147Y-104543100D01*
X153061015Y-104682481D01*
X152942481Y-104801015D01*
X152803100Y-104894147D01*
X152648228Y-104958297D01*
X152483816Y-104991000D01*
X152316184Y-104991000D01*
X152151772Y-104958297D01*
X151996900Y-104894147D01*
X151857519Y-104801015D01*
X151738985Y-104682481D01*
X151645853Y-104543100D01*
X151581703Y-104388228D01*
X151549000Y-104223816D01*
X151549000Y-104056184D01*
X151581703Y-103891772D01*
X151645853Y-103736900D01*
X151738985Y-103597519D01*
X151857519Y-103478985D01*
X151996900Y-103385853D01*
X152151772Y-103321703D01*
X152316184Y-103289000D01*
X152483816Y-103289000D01*
X152648228Y-103321703D01*
G37*
G36*
X160268228Y-100781703D02*
G01*
X160423100Y-100845853D01*
X160562481Y-100938985D01*
X160681015Y-101057519D01*
X160774147Y-101196900D01*
X160838297Y-101351772D01*
X160871000Y-101516184D01*
X160871000Y-101683816D01*
X160838297Y-101848228D01*
X160774147Y-102003100D01*
X160681015Y-102142481D01*
X160562481Y-102261015D01*
X160423100Y-102354147D01*
X160268228Y-102418297D01*
X160103816Y-102451000D01*
X159936184Y-102451000D01*
X159771772Y-102418297D01*
X159616900Y-102354147D01*
X159477519Y-102261015D01*
X159358985Y-102142481D01*
X159265853Y-102003100D01*
X159201703Y-101848228D01*
X159169000Y-101683816D01*
X159169000Y-101516184D01*
X159201703Y-101351772D01*
X159265853Y-101196900D01*
X159358985Y-101057519D01*
X159477519Y-100938985D01*
X159616900Y-100845853D01*
X159771772Y-100781703D01*
X159936184Y-100749000D01*
X160103816Y-100749000D01*
X160268228Y-100781703D01*
G37*
G36*
X152648228Y-100781703D02*
G01*
X152803100Y-100845853D01*
X152942481Y-100938985D01*
X153061015Y-101057519D01*
X153154147Y-101196900D01*
X153218297Y-101351772D01*
X153251000Y-101516184D01*
X153251000Y-101683816D01*
X153218297Y-101848228D01*
X153154147Y-102003100D01*
X153061015Y-102142481D01*
X152942481Y-102261015D01*
X152803100Y-102354147D01*
X152648228Y-102418297D01*
X152483816Y-102451000D01*
X152316184Y-102451000D01*
X152151772Y-102418297D01*
X151996900Y-102354147D01*
X151857519Y-102261015D01*
X151738985Y-102142481D01*
X151645853Y-102003100D01*
X151581703Y-101848228D01*
X151549000Y-101683816D01*
X151549000Y-101516184D01*
X151581703Y-101351772D01*
X151645853Y-101196900D01*
X151738985Y-101057519D01*
X151857519Y-100938985D01*
X151996900Y-100845853D01*
X152151772Y-100781703D01*
X152316184Y-100749000D01*
X152483816Y-100749000D01*
X152648228Y-100781703D01*
G37*
G36*
X172832915Y-99537334D02*
G01*
X172941491Y-99570271D01*
X172941494Y-99570272D01*
X172977600Y-99589571D01*
X173041556Y-99623756D01*
X173129264Y-99695736D01*
X173201244Y-99783443D01*
X173235429Y-99847399D01*
X173254728Y-99883505D01*
X173254729Y-99883508D01*
X173287666Y-99992084D01*
X173296000Y-100076702D01*
X173296000Y-100583297D01*
X173287666Y-100667916D01*
X173255252Y-100774767D01*
X173254728Y-100776495D01*
X173251944Y-100781703D01*
X173201244Y-100876557D01*
X173129264Y-100964264D01*
X173041557Y-101036244D01*
X172977601Y-101070429D01*
X172941495Y-101089728D01*
X172941492Y-101089729D01*
X172832916Y-101122666D01*
X172720000Y-101133787D01*
X172607085Y-101122666D01*
X172498509Y-101089729D01*
X172498506Y-101089728D01*
X172462400Y-101070429D01*
X172398444Y-101036244D01*
X172310737Y-100964264D01*
X172238757Y-100876557D01*
X172195239Y-100795141D01*
X172181625Y-100774766D01*
X172164298Y-100757439D01*
X172143924Y-100743826D01*
X172121285Y-100734448D01*
X172097252Y-100729668D01*
X172072748Y-100729668D01*
X172048715Y-100734448D01*
X172026076Y-100743826D01*
X172005701Y-100757440D01*
X171988374Y-100774767D01*
X171974761Y-100795141D01*
X171931244Y-100876557D01*
X171859264Y-100964264D01*
X171771557Y-101036244D01*
X171707601Y-101070429D01*
X171671495Y-101089728D01*
X171671492Y-101089729D01*
X171562916Y-101122666D01*
X171450000Y-101133787D01*
X171337085Y-101122666D01*
X171228509Y-101089729D01*
X171228506Y-101089728D01*
X171192400Y-101070429D01*
X171128444Y-101036244D01*
X171040737Y-100964264D01*
X170977622Y-100887359D01*
X170960297Y-100870034D01*
X170939923Y-100856420D01*
X170917284Y-100847043D01*
X170893250Y-100842263D01*
X170868746Y-100842263D01*
X170844713Y-100847044D01*
X170822074Y-100856421D01*
X170801700Y-100870035D01*
X170784373Y-100887362D01*
X170770759Y-100907736D01*
X170761382Y-100930375D01*
X170756000Y-100966660D01*
X170756000Y-101131000D01*
X169604000Y-101131000D01*
X169604000Y-99529000D01*
X170756000Y-99529000D01*
X170756000Y-99693341D01*
X170758402Y-99717727D01*
X170765515Y-99741176D01*
X170777066Y-99762787D01*
X170792611Y-99781729D01*
X170811553Y-99797274D01*
X170833164Y-99808825D01*
X170856613Y-99815938D01*
X170880999Y-99818340D01*
X170905385Y-99815938D01*
X170928834Y-99808825D01*
X170950445Y-99797274D01*
X170969387Y-99781729D01*
X170977608Y-99772657D01*
X171040736Y-99695736D01*
X171128443Y-99623756D01*
X171192399Y-99589571D01*
X171228505Y-99570272D01*
X171228508Y-99570271D01*
X171337084Y-99537334D01*
X171450000Y-99526213D01*
X171562915Y-99537334D01*
X171671491Y-99570271D01*
X171671494Y-99570272D01*
X171707600Y-99589571D01*
X171771556Y-99623756D01*
X171859264Y-99695736D01*
X171931244Y-99783443D01*
X171974761Y-99864859D01*
X171988375Y-99885234D01*
X172005702Y-99902561D01*
X172026076Y-99916174D01*
X172048715Y-99925552D01*
X172072748Y-99930332D01*
X172097252Y-99930332D01*
X172121285Y-99925552D01*
X172143924Y-99916174D01*
X172164299Y-99902560D01*
X172181626Y-99885233D01*
X172195239Y-99864860D01*
X172238756Y-99783444D01*
X172310736Y-99695736D01*
X172398443Y-99623756D01*
X172462399Y-99589571D01*
X172498505Y-99570272D01*
X172498508Y-99570271D01*
X172607084Y-99537334D01*
X172720000Y-99526213D01*
X172832915Y-99537334D01*
G37*
G36*
X152648228Y-98241703D02*
G01*
X152803100Y-98305853D01*
X152942481Y-98398985D01*
X153061015Y-98517519D01*
X153154147Y-98656900D01*
X153218297Y-98811772D01*
X153251000Y-98976184D01*
X153251000Y-99143816D01*
X153218297Y-99308228D01*
X153154147Y-99463100D01*
X153061015Y-99602481D01*
X152942481Y-99721015D01*
X152803100Y-99814147D01*
X152648228Y-99878297D01*
X152483816Y-99911000D01*
X152316184Y-99911000D01*
X152151772Y-99878297D01*
X151996900Y-99814147D01*
X151857519Y-99721015D01*
X151738985Y-99602481D01*
X151645853Y-99463100D01*
X151581703Y-99308228D01*
X151549000Y-99143816D01*
X151549000Y-98976184D01*
X151581703Y-98811772D01*
X151645853Y-98656900D01*
X151738985Y-98517519D01*
X151857519Y-98398985D01*
X151996900Y-98305853D01*
X152151772Y-98241703D01*
X152316184Y-98209000D01*
X152483816Y-98209000D01*
X152648228Y-98241703D01*
G37*
G36*
X160268228Y-98241703D02*
G01*
X160423100Y-98305853D01*
X160562481Y-98398985D01*
X160681015Y-98517519D01*
X160774147Y-98656900D01*
X160838297Y-98811772D01*
X160871000Y-98976184D01*
X160871000Y-99143816D01*
X160838297Y-99308228D01*
X160774147Y-99463100D01*
X160681015Y-99602481D01*
X160562481Y-99721015D01*
X160423100Y-99814147D01*
X160268228Y-99878297D01*
X160103816Y-99911000D01*
X159936184Y-99911000D01*
X159771772Y-99878297D01*
X159616900Y-99814147D01*
X159477519Y-99721015D01*
X159358985Y-99602481D01*
X159265853Y-99463100D01*
X159201703Y-99308228D01*
X159169000Y-99143816D01*
X159169000Y-98976184D01*
X159201703Y-98811772D01*
X159265853Y-98656900D01*
X159358985Y-98517519D01*
X159477519Y-98398985D01*
X159616900Y-98305853D01*
X159771772Y-98241703D01*
X159936184Y-98209000D01*
X160103816Y-98209000D01*
X160268228Y-98241703D01*
G37*
G36*
X152648228Y-95701703D02*
G01*
X152803100Y-95765853D01*
X152942481Y-95858985D01*
X153061015Y-95977519D01*
X153154147Y-96116900D01*
X153218297Y-96271772D01*
X153251000Y-96436184D01*
X153251000Y-96603816D01*
X153218297Y-96768228D01*
X153154147Y-96923100D01*
X153061015Y-97062481D01*
X152942481Y-97181015D01*
X152803100Y-97274147D01*
X152648228Y-97338297D01*
X152483816Y-97371000D01*
X152316184Y-97371000D01*
X152151772Y-97338297D01*
X151996900Y-97274147D01*
X151857519Y-97181015D01*
X151738985Y-97062481D01*
X151645853Y-96923100D01*
X151581703Y-96768228D01*
X151549000Y-96603816D01*
X151549000Y-96436184D01*
X151581703Y-96271772D01*
X151645853Y-96116900D01*
X151738985Y-95977519D01*
X151857519Y-95858985D01*
X151996900Y-95765853D01*
X152151772Y-95701703D01*
X152316184Y-95669000D01*
X152483816Y-95669000D01*
X152648228Y-95701703D01*
G37*
G36*
X160268228Y-95701703D02*
G01*
X160423100Y-95765853D01*
X160562481Y-95858985D01*
X160681015Y-95977519D01*
X160774147Y-96116900D01*
X160838297Y-96271772D01*
X160871000Y-96436184D01*
X160871000Y-96603816D01*
X160838297Y-96768228D01*
X160774147Y-96923100D01*
X160681015Y-97062481D01*
X160562481Y-97181015D01*
X160423100Y-97274147D01*
X160268228Y-97338297D01*
X160103816Y-97371000D01*
X159936184Y-97371000D01*
X159771772Y-97338297D01*
X159616900Y-97274147D01*
X159477519Y-97181015D01*
X159358985Y-97062481D01*
X159265853Y-96923100D01*
X159201703Y-96768228D01*
X159169000Y-96603816D01*
X159169000Y-96436184D01*
X159201703Y-96271772D01*
X159265853Y-96116900D01*
X159358985Y-95977519D01*
X159477519Y-95858985D01*
X159616900Y-95765853D01*
X159771772Y-95701703D01*
X159936184Y-95669000D01*
X160103816Y-95669000D01*
X160268228Y-95701703D01*
G37*
G36*
X171968254Y-83117818D02*
G01*
X172341511Y-83272426D01*
X172341513Y-83272427D01*
X172677436Y-83496884D01*
X172963116Y-83782564D01*
X173187574Y-84118489D01*
X173342182Y-84491746D01*
X173421000Y-84887993D01*
X173421000Y-85292007D01*
X173342182Y-85688254D01*
X173187574Y-86061511D01*
X173187573Y-86061513D01*
X172963116Y-86397436D01*
X172677436Y-86683116D01*
X172341513Y-86907573D01*
X172341512Y-86907574D01*
X172341511Y-86907574D01*
X171968254Y-87062182D01*
X171572007Y-87141000D01*
X171167993Y-87141000D01*
X170771746Y-87062182D01*
X170398489Y-86907574D01*
X170398488Y-86907574D01*
X170398487Y-86907573D01*
X170062564Y-86683116D01*
X169776884Y-86397436D01*
X169552427Y-86061513D01*
X169552426Y-86061511D01*
X169397818Y-85688254D01*
X169319000Y-85292007D01*
X169319000Y-84887993D01*
X169397818Y-84491746D01*
X169552426Y-84118489D01*
X169776884Y-83782564D01*
X170062564Y-83496884D01*
X170398487Y-83272427D01*
X170398489Y-83272426D01*
X170771746Y-83117818D01*
X171167993Y-83039000D01*
X171572007Y-83039000D01*
X171968254Y-83117818D01*
G37*
G36*
X168321000Y-87041000D02*
G01*
X164419000Y-87041000D01*
X164419000Y-83139000D01*
X168321000Y-83139000D01*
X168321000Y-87041000D01*
G37*
M02*
