G04 #@! TF.GenerationSoftware,KiCad,Pcbnew,(5.1.5-0-10_14)*
G04 #@! TF.CreationDate,2020-05-17T15:29:09+03:00*
G04 #@! TF.ProjectId,final,66696e61-6c2e-46b6-9963-61645f706362,rev?*
G04 #@! TF.SameCoordinates,Original*
G04 #@! TF.FileFunction,Paste,Top*
G04 #@! TF.FilePolarity,Positive*
%FSLAX46Y46*%
G04 Gerber Fmt 4.6, Leading zero omitted, Abs format (unit mm)*
G04 Created by KiCad (PCBNEW (5.1.5-0-10_14)) date 2020-05-17 15:29:09*
%MOMM*%
%LPD*%
G04 APERTURE LIST*
%ADD10R,1.270000X5.080000*%
%ADD11C,0.100000*%
G04 APERTURE END LIST*
D10*
X111315000Y-105410000D03*
X89345000Y-105410000D03*
D11*
G36*
X142714505Y-94921204D02*
G01*
X142738773Y-94924804D01*
X142762572Y-94930765D01*
X142785671Y-94939030D01*
X142807850Y-94949520D01*
X142828893Y-94962132D01*
X142848599Y-94976747D01*
X142866777Y-94993223D01*
X142883253Y-95011401D01*
X142897868Y-95031107D01*
X142910480Y-95052150D01*
X142920970Y-95074329D01*
X142929235Y-95097428D01*
X142935196Y-95121227D01*
X142938796Y-95145495D01*
X142940000Y-95169999D01*
X142940000Y-95820001D01*
X142938796Y-95844505D01*
X142935196Y-95868773D01*
X142929235Y-95892572D01*
X142920970Y-95915671D01*
X142910480Y-95937850D01*
X142897868Y-95958893D01*
X142883253Y-95978599D01*
X142866777Y-95996777D01*
X142848599Y-96013253D01*
X142828893Y-96027868D01*
X142807850Y-96040480D01*
X142785671Y-96050970D01*
X142762572Y-96059235D01*
X142738773Y-96065196D01*
X142714505Y-96068796D01*
X142690001Y-96070000D01*
X141789999Y-96070000D01*
X141765495Y-96068796D01*
X141741227Y-96065196D01*
X141717428Y-96059235D01*
X141694329Y-96050970D01*
X141672150Y-96040480D01*
X141651107Y-96027868D01*
X141631401Y-96013253D01*
X141613223Y-95996777D01*
X141596747Y-95978599D01*
X141582132Y-95958893D01*
X141569520Y-95937850D01*
X141559030Y-95915671D01*
X141550765Y-95892572D01*
X141544804Y-95868773D01*
X141541204Y-95844505D01*
X141540000Y-95820001D01*
X141540000Y-95169999D01*
X141541204Y-95145495D01*
X141544804Y-95121227D01*
X141550765Y-95097428D01*
X141559030Y-95074329D01*
X141569520Y-95052150D01*
X141582132Y-95031107D01*
X141596747Y-95011401D01*
X141613223Y-94993223D01*
X141631401Y-94976747D01*
X141651107Y-94962132D01*
X141672150Y-94949520D01*
X141694329Y-94939030D01*
X141717428Y-94930765D01*
X141741227Y-94924804D01*
X141765495Y-94921204D01*
X141789999Y-94920000D01*
X142690001Y-94920000D01*
X142714505Y-94921204D01*
G37*
G36*
X142714505Y-96971204D02*
G01*
X142738773Y-96974804D01*
X142762572Y-96980765D01*
X142785671Y-96989030D01*
X142807850Y-96999520D01*
X142828893Y-97012132D01*
X142848599Y-97026747D01*
X142866777Y-97043223D01*
X142883253Y-97061401D01*
X142897868Y-97081107D01*
X142910480Y-97102150D01*
X142920970Y-97124329D01*
X142929235Y-97147428D01*
X142935196Y-97171227D01*
X142938796Y-97195495D01*
X142940000Y-97219999D01*
X142940000Y-97870001D01*
X142938796Y-97894505D01*
X142935196Y-97918773D01*
X142929235Y-97942572D01*
X142920970Y-97965671D01*
X142910480Y-97987850D01*
X142897868Y-98008893D01*
X142883253Y-98028599D01*
X142866777Y-98046777D01*
X142848599Y-98063253D01*
X142828893Y-98077868D01*
X142807850Y-98090480D01*
X142785671Y-98100970D01*
X142762572Y-98109235D01*
X142738773Y-98115196D01*
X142714505Y-98118796D01*
X142690001Y-98120000D01*
X141789999Y-98120000D01*
X141765495Y-98118796D01*
X141741227Y-98115196D01*
X141717428Y-98109235D01*
X141694329Y-98100970D01*
X141672150Y-98090480D01*
X141651107Y-98077868D01*
X141631401Y-98063253D01*
X141613223Y-98046777D01*
X141596747Y-98028599D01*
X141582132Y-98008893D01*
X141569520Y-97987850D01*
X141559030Y-97965671D01*
X141550765Y-97942572D01*
X141544804Y-97918773D01*
X141541204Y-97894505D01*
X141540000Y-97870001D01*
X141540000Y-97219999D01*
X141541204Y-97195495D01*
X141544804Y-97171227D01*
X141550765Y-97147428D01*
X141559030Y-97124329D01*
X141569520Y-97102150D01*
X141582132Y-97081107D01*
X141596747Y-97061401D01*
X141613223Y-97043223D01*
X141631401Y-97026747D01*
X141651107Y-97012132D01*
X141672150Y-96999520D01*
X141694329Y-96989030D01*
X141717428Y-96980765D01*
X141741227Y-96974804D01*
X141765495Y-96971204D01*
X141789999Y-96970000D01*
X142690001Y-96970000D01*
X142714505Y-96971204D01*
G37*
D10*
X137985000Y-87630000D03*
X116015000Y-87630000D03*
X89345000Y-80010000D03*
X111315000Y-80010000D03*
X90615000Y-130810000D03*
X112585000Y-130810000D03*
X137985000Y-113030000D03*
X116015000Y-113030000D03*
D11*
G36*
X160124505Y-113601204D02*
G01*
X160148773Y-113604804D01*
X160172572Y-113610765D01*
X160195671Y-113619030D01*
X160217850Y-113629520D01*
X160238893Y-113642132D01*
X160258599Y-113656747D01*
X160276777Y-113673223D01*
X160293253Y-113691401D01*
X160307868Y-113711107D01*
X160320480Y-113732150D01*
X160330970Y-113754329D01*
X160339235Y-113777428D01*
X160345196Y-113801227D01*
X160348796Y-113825495D01*
X160350000Y-113849999D01*
X160350000Y-114750001D01*
X160348796Y-114774505D01*
X160345196Y-114798773D01*
X160339235Y-114822572D01*
X160330970Y-114845671D01*
X160320480Y-114867850D01*
X160307868Y-114888893D01*
X160293253Y-114908599D01*
X160276777Y-114926777D01*
X160258599Y-114943253D01*
X160238893Y-114957868D01*
X160217850Y-114970480D01*
X160195671Y-114980970D01*
X160172572Y-114989235D01*
X160148773Y-114995196D01*
X160124505Y-114998796D01*
X160100001Y-115000000D01*
X159449999Y-115000000D01*
X159425495Y-114998796D01*
X159401227Y-114995196D01*
X159377428Y-114989235D01*
X159354329Y-114980970D01*
X159332150Y-114970480D01*
X159311107Y-114957868D01*
X159291401Y-114943253D01*
X159273223Y-114926777D01*
X159256747Y-114908599D01*
X159242132Y-114888893D01*
X159229520Y-114867850D01*
X159219030Y-114845671D01*
X159210765Y-114822572D01*
X159204804Y-114798773D01*
X159201204Y-114774505D01*
X159200000Y-114750001D01*
X159200000Y-113849999D01*
X159201204Y-113825495D01*
X159204804Y-113801227D01*
X159210765Y-113777428D01*
X159219030Y-113754329D01*
X159229520Y-113732150D01*
X159242132Y-113711107D01*
X159256747Y-113691401D01*
X159273223Y-113673223D01*
X159291401Y-113656747D01*
X159311107Y-113642132D01*
X159332150Y-113629520D01*
X159354329Y-113619030D01*
X159377428Y-113610765D01*
X159401227Y-113604804D01*
X159425495Y-113601204D01*
X159449999Y-113600000D01*
X160100001Y-113600000D01*
X160124505Y-113601204D01*
G37*
G36*
X158074505Y-113601204D02*
G01*
X158098773Y-113604804D01*
X158122572Y-113610765D01*
X158145671Y-113619030D01*
X158167850Y-113629520D01*
X158188893Y-113642132D01*
X158208599Y-113656747D01*
X158226777Y-113673223D01*
X158243253Y-113691401D01*
X158257868Y-113711107D01*
X158270480Y-113732150D01*
X158280970Y-113754329D01*
X158289235Y-113777428D01*
X158295196Y-113801227D01*
X158298796Y-113825495D01*
X158300000Y-113849999D01*
X158300000Y-114750001D01*
X158298796Y-114774505D01*
X158295196Y-114798773D01*
X158289235Y-114822572D01*
X158280970Y-114845671D01*
X158270480Y-114867850D01*
X158257868Y-114888893D01*
X158243253Y-114908599D01*
X158226777Y-114926777D01*
X158208599Y-114943253D01*
X158188893Y-114957868D01*
X158167850Y-114970480D01*
X158145671Y-114980970D01*
X158122572Y-114989235D01*
X158098773Y-114995196D01*
X158074505Y-114998796D01*
X158050001Y-115000000D01*
X157399999Y-115000000D01*
X157375495Y-114998796D01*
X157351227Y-114995196D01*
X157327428Y-114989235D01*
X157304329Y-114980970D01*
X157282150Y-114970480D01*
X157261107Y-114957868D01*
X157241401Y-114943253D01*
X157223223Y-114926777D01*
X157206747Y-114908599D01*
X157192132Y-114888893D01*
X157179520Y-114867850D01*
X157169030Y-114845671D01*
X157160765Y-114822572D01*
X157154804Y-114798773D01*
X157151204Y-114774505D01*
X157150000Y-114750001D01*
X157150000Y-113849999D01*
X157151204Y-113825495D01*
X157154804Y-113801227D01*
X157160765Y-113777428D01*
X157169030Y-113754329D01*
X157179520Y-113732150D01*
X157192132Y-113711107D01*
X157206747Y-113691401D01*
X157223223Y-113673223D01*
X157241401Y-113656747D01*
X157261107Y-113642132D01*
X157282150Y-113629520D01*
X157304329Y-113619030D01*
X157327428Y-113610765D01*
X157351227Y-113604804D01*
X157375495Y-113601204D01*
X157399999Y-113600000D01*
X158050001Y-113600000D01*
X158074505Y-113601204D01*
G37*
G36*
X149184505Y-85661204D02*
G01*
X149208773Y-85664804D01*
X149232572Y-85670765D01*
X149255671Y-85679030D01*
X149277850Y-85689520D01*
X149298893Y-85702132D01*
X149318599Y-85716747D01*
X149336777Y-85733223D01*
X149353253Y-85751401D01*
X149367868Y-85771107D01*
X149380480Y-85792150D01*
X149390970Y-85814329D01*
X149399235Y-85837428D01*
X149405196Y-85861227D01*
X149408796Y-85885495D01*
X149410000Y-85909999D01*
X149410000Y-86810001D01*
X149408796Y-86834505D01*
X149405196Y-86858773D01*
X149399235Y-86882572D01*
X149390970Y-86905671D01*
X149380480Y-86927850D01*
X149367868Y-86948893D01*
X149353253Y-86968599D01*
X149336777Y-86986777D01*
X149318599Y-87003253D01*
X149298893Y-87017868D01*
X149277850Y-87030480D01*
X149255671Y-87040970D01*
X149232572Y-87049235D01*
X149208773Y-87055196D01*
X149184505Y-87058796D01*
X149160001Y-87060000D01*
X148509999Y-87060000D01*
X148485495Y-87058796D01*
X148461227Y-87055196D01*
X148437428Y-87049235D01*
X148414329Y-87040970D01*
X148392150Y-87030480D01*
X148371107Y-87017868D01*
X148351401Y-87003253D01*
X148333223Y-86986777D01*
X148316747Y-86968599D01*
X148302132Y-86948893D01*
X148289520Y-86927850D01*
X148279030Y-86905671D01*
X148270765Y-86882572D01*
X148264804Y-86858773D01*
X148261204Y-86834505D01*
X148260000Y-86810001D01*
X148260000Y-85909999D01*
X148261204Y-85885495D01*
X148264804Y-85861227D01*
X148270765Y-85837428D01*
X148279030Y-85814329D01*
X148289520Y-85792150D01*
X148302132Y-85771107D01*
X148316747Y-85751401D01*
X148333223Y-85733223D01*
X148351401Y-85716747D01*
X148371107Y-85702132D01*
X148392150Y-85689520D01*
X148414329Y-85679030D01*
X148437428Y-85670765D01*
X148461227Y-85664804D01*
X148485495Y-85661204D01*
X148509999Y-85660000D01*
X149160001Y-85660000D01*
X149184505Y-85661204D01*
G37*
G36*
X151234505Y-85661204D02*
G01*
X151258773Y-85664804D01*
X151282572Y-85670765D01*
X151305671Y-85679030D01*
X151327850Y-85689520D01*
X151348893Y-85702132D01*
X151368599Y-85716747D01*
X151386777Y-85733223D01*
X151403253Y-85751401D01*
X151417868Y-85771107D01*
X151430480Y-85792150D01*
X151440970Y-85814329D01*
X151449235Y-85837428D01*
X151455196Y-85861227D01*
X151458796Y-85885495D01*
X151460000Y-85909999D01*
X151460000Y-86810001D01*
X151458796Y-86834505D01*
X151455196Y-86858773D01*
X151449235Y-86882572D01*
X151440970Y-86905671D01*
X151430480Y-86927850D01*
X151417868Y-86948893D01*
X151403253Y-86968599D01*
X151386777Y-86986777D01*
X151368599Y-87003253D01*
X151348893Y-87017868D01*
X151327850Y-87030480D01*
X151305671Y-87040970D01*
X151282572Y-87049235D01*
X151258773Y-87055196D01*
X151234505Y-87058796D01*
X151210001Y-87060000D01*
X150559999Y-87060000D01*
X150535495Y-87058796D01*
X150511227Y-87055196D01*
X150487428Y-87049235D01*
X150464329Y-87040970D01*
X150442150Y-87030480D01*
X150421107Y-87017868D01*
X150401401Y-87003253D01*
X150383223Y-86986777D01*
X150366747Y-86968599D01*
X150352132Y-86948893D01*
X150339520Y-86927850D01*
X150329030Y-86905671D01*
X150320765Y-86882572D01*
X150314804Y-86858773D01*
X150311204Y-86834505D01*
X150310000Y-86810001D01*
X150310000Y-85909999D01*
X150311204Y-85885495D01*
X150314804Y-85861227D01*
X150320765Y-85837428D01*
X150329030Y-85814329D01*
X150339520Y-85792150D01*
X150352132Y-85771107D01*
X150366747Y-85751401D01*
X150383223Y-85733223D01*
X150401401Y-85716747D01*
X150421107Y-85702132D01*
X150442150Y-85689520D01*
X150464329Y-85679030D01*
X150487428Y-85670765D01*
X150511227Y-85664804D01*
X150535495Y-85661204D01*
X150559999Y-85660000D01*
X151210001Y-85660000D01*
X151234505Y-85661204D01*
G37*
G36*
X142714505Y-105861204D02*
G01*
X142738773Y-105864804D01*
X142762572Y-105870765D01*
X142785671Y-105879030D01*
X142807850Y-105889520D01*
X142828893Y-105902132D01*
X142848599Y-105916747D01*
X142866777Y-105933223D01*
X142883253Y-105951401D01*
X142897868Y-105971107D01*
X142910480Y-105992150D01*
X142920970Y-106014329D01*
X142929235Y-106037428D01*
X142935196Y-106061227D01*
X142938796Y-106085495D01*
X142940000Y-106109999D01*
X142940000Y-106760001D01*
X142938796Y-106784505D01*
X142935196Y-106808773D01*
X142929235Y-106832572D01*
X142920970Y-106855671D01*
X142910480Y-106877850D01*
X142897868Y-106898893D01*
X142883253Y-106918599D01*
X142866777Y-106936777D01*
X142848599Y-106953253D01*
X142828893Y-106967868D01*
X142807850Y-106980480D01*
X142785671Y-106990970D01*
X142762572Y-106999235D01*
X142738773Y-107005196D01*
X142714505Y-107008796D01*
X142690001Y-107010000D01*
X141789999Y-107010000D01*
X141765495Y-107008796D01*
X141741227Y-107005196D01*
X141717428Y-106999235D01*
X141694329Y-106990970D01*
X141672150Y-106980480D01*
X141651107Y-106967868D01*
X141631401Y-106953253D01*
X141613223Y-106936777D01*
X141596747Y-106918599D01*
X141582132Y-106898893D01*
X141569520Y-106877850D01*
X141559030Y-106855671D01*
X141550765Y-106832572D01*
X141544804Y-106808773D01*
X141541204Y-106784505D01*
X141540000Y-106760001D01*
X141540000Y-106109999D01*
X141541204Y-106085495D01*
X141544804Y-106061227D01*
X141550765Y-106037428D01*
X141559030Y-106014329D01*
X141569520Y-105992150D01*
X141582132Y-105971107D01*
X141596747Y-105951401D01*
X141613223Y-105933223D01*
X141631401Y-105916747D01*
X141651107Y-105902132D01*
X141672150Y-105889520D01*
X141694329Y-105879030D01*
X141717428Y-105870765D01*
X141741227Y-105864804D01*
X141765495Y-105861204D01*
X141789999Y-105860000D01*
X142690001Y-105860000D01*
X142714505Y-105861204D01*
G37*
G36*
X142714505Y-103811204D02*
G01*
X142738773Y-103814804D01*
X142762572Y-103820765D01*
X142785671Y-103829030D01*
X142807850Y-103839520D01*
X142828893Y-103852132D01*
X142848599Y-103866747D01*
X142866777Y-103883223D01*
X142883253Y-103901401D01*
X142897868Y-103921107D01*
X142910480Y-103942150D01*
X142920970Y-103964329D01*
X142929235Y-103987428D01*
X142935196Y-104011227D01*
X142938796Y-104035495D01*
X142940000Y-104059999D01*
X142940000Y-104710001D01*
X142938796Y-104734505D01*
X142935196Y-104758773D01*
X142929235Y-104782572D01*
X142920970Y-104805671D01*
X142910480Y-104827850D01*
X142897868Y-104848893D01*
X142883253Y-104868599D01*
X142866777Y-104886777D01*
X142848599Y-104903253D01*
X142828893Y-104917868D01*
X142807850Y-104930480D01*
X142785671Y-104940970D01*
X142762572Y-104949235D01*
X142738773Y-104955196D01*
X142714505Y-104958796D01*
X142690001Y-104960000D01*
X141789999Y-104960000D01*
X141765495Y-104958796D01*
X141741227Y-104955196D01*
X141717428Y-104949235D01*
X141694329Y-104940970D01*
X141672150Y-104930480D01*
X141651107Y-104917868D01*
X141631401Y-104903253D01*
X141613223Y-104886777D01*
X141596747Y-104868599D01*
X141582132Y-104848893D01*
X141569520Y-104827850D01*
X141559030Y-104805671D01*
X141550765Y-104782572D01*
X141544804Y-104758773D01*
X141541204Y-104734505D01*
X141540000Y-104710001D01*
X141540000Y-104059999D01*
X141541204Y-104035495D01*
X141544804Y-104011227D01*
X141550765Y-103987428D01*
X141559030Y-103964329D01*
X141569520Y-103942150D01*
X141582132Y-103921107D01*
X141596747Y-103901401D01*
X141613223Y-103883223D01*
X141631401Y-103866747D01*
X141651107Y-103852132D01*
X141672150Y-103839520D01*
X141694329Y-103829030D01*
X141717428Y-103820765D01*
X141741227Y-103814804D01*
X141765495Y-103811204D01*
X141789999Y-103810000D01*
X142690001Y-103810000D01*
X142714505Y-103811204D01*
G37*
M02*
