G04 #@! TF.GenerationSoftware,KiCad,Pcbnew,(5.1.5-0-10_14)*
G04 #@! TF.CreationDate,2020-05-17T15:29:12+03:00*
G04 #@! TF.ProjectId,final,66696e61-6c2e-46b6-9963-61645f706362,rev?*
G04 #@! TF.SameCoordinates,Original*
G04 #@! TF.FileFunction,Legend,Top*
G04 #@! TF.FilePolarity,Positive*
%FSLAX46Y46*%
G04 Gerber Fmt 4.6, Leading zero omitted, Abs format (unit mm)*
G04 Created by KiCad (PCBNEW (5.1.5-0-10_14)) date 2020-05-17 15:29:12*
%MOMM*%
%LPD*%
G04 APERTURE LIST*
%ADD10C,0.120000*%
%ADD11C,0.150000*%
G04 APERTURE END LIST*
D10*
X94326646Y-113976530D02*
G75*
G02X90990000Y-112990000I-1306646J1716530D01*
G01*
X89550000Y-109040000D02*
X90990000Y-112990000D01*
X91630000Y-97870000D02*
X89550000Y-99950000D01*
X95130000Y-97870000D02*
X91630000Y-97870000D01*
X109030000Y-97870000D02*
X111110000Y-99950000D01*
X111110000Y-109040000D02*
X109670000Y-112990000D01*
X109655244Y-112998169D02*
G75*
G02X106330000Y-113960000I-2015244J738169D01*
G01*
X89550000Y-99950000D02*
X89550000Y-102410000D01*
X89550000Y-108410000D02*
X89550000Y-109040000D01*
X111110000Y-99950000D02*
X111110000Y-102410000D01*
X111110000Y-108410000D02*
X111110000Y-109040000D01*
X109030000Y-97870000D02*
X105530000Y-97870000D01*
X155210000Y-105470000D02*
G75*
G02X157210000Y-105470000I1000000J0D01*
G01*
X157210000Y-105470000D02*
X158860000Y-105470000D01*
X158860000Y-105470000D02*
X158860000Y-95190000D01*
X158860000Y-95190000D02*
X153560000Y-95190000D01*
X153560000Y-95190000D02*
X153560000Y-105470000D01*
X153560000Y-105470000D02*
X155210000Y-105470000D01*
X142950000Y-96258748D02*
X142950000Y-96781252D01*
X141530000Y-96258748D02*
X141530000Y-96781252D01*
X146310000Y-117940000D02*
X155030000Y-117940000D01*
X155030000Y-117940000D02*
X155030000Y-123360000D01*
X146310000Y-123360000D02*
X155030000Y-123360000D01*
X144610000Y-119240000D02*
X146310000Y-117940000D01*
X144610000Y-122060000D02*
X146310000Y-123360000D01*
X144610000Y-119240000D02*
X144610000Y-122060000D01*
X163660000Y-83680000D02*
X163660000Y-86500000D01*
X163660000Y-86500000D02*
X165360000Y-87800000D01*
X163660000Y-83680000D02*
X165360000Y-82380000D01*
X165360000Y-87800000D02*
X174080000Y-87800000D01*
X174080000Y-82380000D02*
X174080000Y-87800000D01*
X165360000Y-82380000D02*
X174080000Y-82380000D01*
X120996646Y-96196530D02*
G75*
G02X117660000Y-95210000I-1306646J1716530D01*
G01*
X116220000Y-91260000D02*
X117660000Y-95210000D01*
X118300000Y-80090000D02*
X116220000Y-82170000D01*
X121800000Y-80090000D02*
X118300000Y-80090000D01*
X135700000Y-80090000D02*
X137780000Y-82170000D01*
X137780000Y-91260000D02*
X136340000Y-95210000D01*
X136325244Y-95218169D02*
G75*
G02X133000000Y-96180000I-2015244J738169D01*
G01*
X116220000Y-82170000D02*
X116220000Y-84630000D01*
X116220000Y-90630000D02*
X116220000Y-91260000D01*
X137780000Y-82170000D02*
X137780000Y-84630000D01*
X137780000Y-90630000D02*
X137780000Y-91260000D01*
X135700000Y-80090000D02*
X132200000Y-80090000D01*
X109030000Y-72470000D02*
X105530000Y-72470000D01*
X111110000Y-83010000D02*
X111110000Y-83640000D01*
X111110000Y-74550000D02*
X111110000Y-77010000D01*
X89550000Y-83010000D02*
X89550000Y-83640000D01*
X89550000Y-74550000D02*
X89550000Y-77010000D01*
X109655244Y-87598169D02*
G75*
G02X106330000Y-88560000I-2015244J738169D01*
G01*
X111110000Y-83640000D02*
X109670000Y-87590000D01*
X109030000Y-72470000D02*
X111110000Y-74550000D01*
X95130000Y-72470000D02*
X91630000Y-72470000D01*
X91630000Y-72470000D02*
X89550000Y-74550000D01*
X89550000Y-83640000D02*
X90990000Y-87590000D01*
X94326646Y-88576530D02*
G75*
G02X90990000Y-87590000I-1306646J1716530D01*
G01*
X110300000Y-123270000D02*
X106800000Y-123270000D01*
X112380000Y-133810000D02*
X112380000Y-134440000D01*
X112380000Y-125350000D02*
X112380000Y-127810000D01*
X90820000Y-133810000D02*
X90820000Y-134440000D01*
X90820000Y-125350000D02*
X90820000Y-127810000D01*
X110925244Y-138398169D02*
G75*
G02X107600000Y-139360000I-2015244J738169D01*
G01*
X112380000Y-134440000D02*
X110940000Y-138390000D01*
X110300000Y-123270000D02*
X112380000Y-125350000D01*
X96400000Y-123270000D02*
X92900000Y-123270000D01*
X92900000Y-123270000D02*
X90820000Y-125350000D01*
X90820000Y-134440000D02*
X92260000Y-138390000D01*
X95596646Y-139376530D02*
G75*
G02X92260000Y-138390000I-1306646J1716530D01*
G01*
X120996646Y-121596530D02*
G75*
G02X117660000Y-120610000I-1306646J1716530D01*
G01*
X116220000Y-116660000D02*
X117660000Y-120610000D01*
X118300000Y-105490000D02*
X116220000Y-107570000D01*
X121800000Y-105490000D02*
X118300000Y-105490000D01*
X135700000Y-105490000D02*
X137780000Y-107570000D01*
X137780000Y-116660000D02*
X136340000Y-120610000D01*
X136325244Y-120618169D02*
G75*
G02X133000000Y-121580000I-2015244J738169D01*
G01*
X116220000Y-107570000D02*
X116220000Y-110030000D01*
X116220000Y-116030000D02*
X116220000Y-116660000D01*
X137780000Y-107570000D02*
X137780000Y-110030000D01*
X137780000Y-116030000D02*
X137780000Y-116660000D01*
X135700000Y-105490000D02*
X132200000Y-105490000D01*
X170180000Y-101350000D02*
X170180000Y-104140000D01*
X171450000Y-101350000D02*
X171450000Y-104140000D01*
X172720000Y-101350000D02*
X172720000Y-104140000D01*
X169050000Y-104140000D02*
X173850000Y-104140000D01*
X173850000Y-104140000D02*
X173850000Y-109330000D01*
X173850000Y-109330000D02*
X169050000Y-109330000D01*
X169050000Y-109330000D02*
X169050000Y-104140000D01*
X159011252Y-115010000D02*
X158488748Y-115010000D01*
X159011252Y-113590000D02*
X158488748Y-113590000D01*
X149598748Y-85650000D02*
X150121252Y-85650000D01*
X149598748Y-87070000D02*
X150121252Y-87070000D01*
X141530000Y-105148748D02*
X141530000Y-105671252D01*
X142950000Y-105148748D02*
X142950000Y-105671252D01*
D11*
X99996666Y-93362380D02*
X99996666Y-94076666D01*
X99949047Y-94219523D01*
X99853809Y-94314761D01*
X99710952Y-94362380D01*
X99615714Y-94362380D01*
X100949047Y-93362380D02*
X100472857Y-93362380D01*
X100425238Y-93838571D01*
X100472857Y-93790952D01*
X100568095Y-93743333D01*
X100806190Y-93743333D01*
X100901428Y-93790952D01*
X100949047Y-93838571D01*
X100996666Y-93933809D01*
X100996666Y-94171904D01*
X100949047Y-94267142D01*
X100901428Y-94314761D01*
X100806190Y-94362380D01*
X100568095Y-94362380D01*
X100472857Y-94314761D01*
X100425238Y-94267142D01*
X152995714Y-92162380D02*
X152519523Y-92162380D01*
X152471904Y-92638571D01*
X152519523Y-92590952D01*
X152614761Y-92543333D01*
X152852857Y-92543333D01*
X152948095Y-92590952D01*
X152995714Y-92638571D01*
X153043333Y-92733809D01*
X153043333Y-92971904D01*
X152995714Y-93067142D01*
X152948095Y-93114761D01*
X152852857Y-93162380D01*
X152614761Y-93162380D01*
X152519523Y-93114761D01*
X152471904Y-93067142D01*
X153948095Y-92162380D02*
X153471904Y-92162380D01*
X153424285Y-92638571D01*
X153471904Y-92590952D01*
X153567142Y-92543333D01*
X153805238Y-92543333D01*
X153900476Y-92590952D01*
X153948095Y-92638571D01*
X153995714Y-92733809D01*
X153995714Y-92971904D01*
X153948095Y-93067142D01*
X153900476Y-93114761D01*
X153805238Y-93162380D01*
X153567142Y-93162380D01*
X153471904Y-93114761D01*
X153424285Y-93067142D01*
X154900476Y-92162380D02*
X154424285Y-92162380D01*
X154376666Y-92638571D01*
X154424285Y-92590952D01*
X154519523Y-92543333D01*
X154757619Y-92543333D01*
X154852857Y-92590952D01*
X154900476Y-92638571D01*
X154948095Y-92733809D01*
X154948095Y-92971904D01*
X154900476Y-93067142D01*
X154852857Y-93114761D01*
X154757619Y-93162380D01*
X154519523Y-93162380D01*
X154424285Y-93114761D01*
X154376666Y-93067142D01*
X155233809Y-92162380D02*
X155805238Y-92162380D01*
X155519523Y-93162380D02*
X155519523Y-92162380D01*
X156138571Y-93162380D02*
X156138571Y-92495714D01*
X156138571Y-92162380D02*
X156090952Y-92210000D01*
X156138571Y-92257619D01*
X156186190Y-92210000D01*
X156138571Y-92162380D01*
X156138571Y-92257619D01*
X156614761Y-93162380D02*
X156614761Y-92495714D01*
X156614761Y-92590952D02*
X156662380Y-92543333D01*
X156757619Y-92495714D01*
X156900476Y-92495714D01*
X156995714Y-92543333D01*
X157043333Y-92638571D01*
X157043333Y-93162380D01*
X157043333Y-92638571D02*
X157090952Y-92543333D01*
X157186190Y-92495714D01*
X157329047Y-92495714D01*
X157424285Y-92543333D01*
X157471904Y-92638571D01*
X157471904Y-93162380D01*
X158329047Y-93114761D02*
X158233809Y-93162380D01*
X158043333Y-93162380D01*
X157948095Y-93114761D01*
X157900476Y-93019523D01*
X157900476Y-92638571D01*
X157948095Y-92543333D01*
X158043333Y-92495714D01*
X158233809Y-92495714D01*
X158329047Y-92543333D01*
X158376666Y-92638571D01*
X158376666Y-92733809D01*
X157900476Y-92829047D01*
X158805238Y-93162380D02*
X158805238Y-92495714D01*
X158805238Y-92686190D02*
X158852857Y-92590952D01*
X158900476Y-92543333D01*
X158995714Y-92495714D01*
X159090952Y-92495714D01*
X159948095Y-93162380D02*
X159376666Y-93162380D01*
X159662380Y-93162380D02*
X159662380Y-92162380D01*
X159567142Y-92305238D01*
X159471904Y-92400476D01*
X159376666Y-92448095D01*
X139533333Y-96877142D02*
X139485714Y-96924761D01*
X139342857Y-96972380D01*
X139247619Y-96972380D01*
X139104761Y-96924761D01*
X139009523Y-96829523D01*
X138961904Y-96734285D01*
X138914285Y-96543809D01*
X138914285Y-96400952D01*
X138961904Y-96210476D01*
X139009523Y-96115238D01*
X139104761Y-96020000D01*
X139247619Y-95972380D01*
X139342857Y-95972380D01*
X139485714Y-96020000D01*
X139533333Y-96067619D01*
X140485714Y-96972380D02*
X139914285Y-96972380D01*
X140200000Y-96972380D02*
X140200000Y-95972380D01*
X140104761Y-96115238D01*
X140009523Y-96210476D01*
X139914285Y-96258095D01*
X149486666Y-116102380D02*
X149486666Y-116816666D01*
X149439047Y-116959523D01*
X149343809Y-117054761D01*
X149200952Y-117102380D01*
X149105714Y-117102380D01*
X150486666Y-117102380D02*
X149915238Y-117102380D01*
X150200952Y-117102380D02*
X150200952Y-116102380D01*
X150105714Y-116245238D01*
X150010476Y-116340476D01*
X149915238Y-116388095D01*
X155748571Y-120757142D02*
X156891428Y-120757142D01*
X156320000Y-121328571D02*
X156320000Y-120185714D01*
X142748571Y-120757142D02*
X143891428Y-120757142D01*
X168536666Y-80542380D02*
X168536666Y-81256666D01*
X168489047Y-81399523D01*
X168393809Y-81494761D01*
X168250952Y-81542380D01*
X168155714Y-81542380D01*
X168965238Y-80637619D02*
X169012857Y-80590000D01*
X169108095Y-80542380D01*
X169346190Y-80542380D01*
X169441428Y-80590000D01*
X169489047Y-80637619D01*
X169536666Y-80732857D01*
X169536666Y-80828095D01*
X169489047Y-80970952D01*
X168917619Y-81542380D01*
X169536666Y-81542380D01*
X161798571Y-85197142D02*
X162941428Y-85197142D01*
X174798571Y-85197142D02*
X175941428Y-85197142D01*
X175370000Y-85768571D02*
X175370000Y-84625714D01*
X126666666Y-75582380D02*
X126666666Y-76296666D01*
X126619047Y-76439523D01*
X126523809Y-76534761D01*
X126380952Y-76582380D01*
X126285714Y-76582380D01*
X127047619Y-75582380D02*
X127666666Y-75582380D01*
X127333333Y-75963333D01*
X127476190Y-75963333D01*
X127571428Y-76010952D01*
X127619047Y-76058571D01*
X127666666Y-76153809D01*
X127666666Y-76391904D01*
X127619047Y-76487142D01*
X127571428Y-76534761D01*
X127476190Y-76582380D01*
X127190476Y-76582380D01*
X127095238Y-76534761D01*
X127047619Y-76487142D01*
X99996666Y-67962380D02*
X99996666Y-68676666D01*
X99949047Y-68819523D01*
X99853809Y-68914761D01*
X99710952Y-68962380D01*
X99615714Y-68962380D01*
X100901428Y-68295714D02*
X100901428Y-68962380D01*
X100663333Y-67914761D02*
X100425238Y-68629047D01*
X101044285Y-68629047D01*
X101266666Y-118762380D02*
X101266666Y-119476666D01*
X101219047Y-119619523D01*
X101123809Y-119714761D01*
X100980952Y-119762380D01*
X100885714Y-119762380D01*
X102171428Y-118762380D02*
X101980952Y-118762380D01*
X101885714Y-118810000D01*
X101838095Y-118857619D01*
X101742857Y-119000476D01*
X101695238Y-119190952D01*
X101695238Y-119571904D01*
X101742857Y-119667142D01*
X101790476Y-119714761D01*
X101885714Y-119762380D01*
X102076190Y-119762380D01*
X102171428Y-119714761D01*
X102219047Y-119667142D01*
X102266666Y-119571904D01*
X102266666Y-119333809D01*
X102219047Y-119238571D01*
X102171428Y-119190952D01*
X102076190Y-119143333D01*
X101885714Y-119143333D01*
X101790476Y-119190952D01*
X101742857Y-119238571D01*
X101695238Y-119333809D01*
X126666666Y-100982380D02*
X126666666Y-101696666D01*
X126619047Y-101839523D01*
X126523809Y-101934761D01*
X126380952Y-101982380D01*
X126285714Y-101982380D01*
X127047619Y-100982380D02*
X127714285Y-100982380D01*
X127285714Y-101982380D01*
X171354761Y-99097619D02*
X171259523Y-99050000D01*
X171164285Y-98954761D01*
X171021428Y-98811904D01*
X170926190Y-98764285D01*
X170830952Y-98764285D01*
X170878571Y-99002380D02*
X170783333Y-98954761D01*
X170688095Y-98859523D01*
X170640476Y-98669047D01*
X170640476Y-98335714D01*
X170688095Y-98145238D01*
X170783333Y-98050000D01*
X170878571Y-98002380D01*
X171069047Y-98002380D01*
X171164285Y-98050000D01*
X171259523Y-98145238D01*
X171307142Y-98335714D01*
X171307142Y-98669047D01*
X171259523Y-98859523D01*
X171164285Y-98954761D01*
X171069047Y-99002380D01*
X170878571Y-99002380D01*
X172259523Y-99002380D02*
X171688095Y-99002380D01*
X171973809Y-99002380D02*
X171973809Y-98002380D01*
X171878571Y-98145238D01*
X171783333Y-98240476D01*
X171688095Y-98288095D01*
X158583333Y-112212380D02*
X158250000Y-111736190D01*
X158011904Y-112212380D02*
X158011904Y-111212380D01*
X158392857Y-111212380D01*
X158488095Y-111260000D01*
X158535714Y-111307619D01*
X158583333Y-111402857D01*
X158583333Y-111545714D01*
X158535714Y-111640952D01*
X158488095Y-111688571D01*
X158392857Y-111736190D01*
X158011904Y-111736190D01*
X159535714Y-112212380D02*
X158964285Y-112212380D01*
X159250000Y-112212380D02*
X159250000Y-111212380D01*
X159154761Y-111355238D01*
X159059523Y-111450476D01*
X158964285Y-111498095D01*
X149693333Y-85162380D02*
X149360000Y-84686190D01*
X149121904Y-85162380D02*
X149121904Y-84162380D01*
X149502857Y-84162380D01*
X149598095Y-84210000D01*
X149645714Y-84257619D01*
X149693333Y-84352857D01*
X149693333Y-84495714D01*
X149645714Y-84590952D01*
X149598095Y-84638571D01*
X149502857Y-84686190D01*
X149121904Y-84686190D01*
X150074285Y-84257619D02*
X150121904Y-84210000D01*
X150217142Y-84162380D01*
X150455238Y-84162380D01*
X150550476Y-84210000D01*
X150598095Y-84257619D01*
X150645714Y-84352857D01*
X150645714Y-84448095D01*
X150598095Y-84590952D01*
X150026666Y-85162380D01*
X150645714Y-85162380D01*
X139533333Y-105862380D02*
X139200000Y-105386190D01*
X138961904Y-105862380D02*
X138961904Y-104862380D01*
X139342857Y-104862380D01*
X139438095Y-104910000D01*
X139485714Y-104957619D01*
X139533333Y-105052857D01*
X139533333Y-105195714D01*
X139485714Y-105290952D01*
X139438095Y-105338571D01*
X139342857Y-105386190D01*
X138961904Y-105386190D01*
X139866666Y-104862380D02*
X140485714Y-104862380D01*
X140152380Y-105243333D01*
X140295238Y-105243333D01*
X140390476Y-105290952D01*
X140438095Y-105338571D01*
X140485714Y-105433809D01*
X140485714Y-105671904D01*
X140438095Y-105767142D01*
X140390476Y-105814761D01*
X140295238Y-105862380D01*
X140009523Y-105862380D01*
X139914285Y-105814761D01*
X139866666Y-105767142D01*
M02*
